<svg id="iran" xmlns="http://www.w3.org/2000/svg" viewBox="0 0 1200 1070.6"><g id="provinces" fill="#D3D3D3" stroke="#9B9B9B"><path id="alborz" d="M404.6 321.3c-.8-.7-3.6-2.9-5.2-3.8-1-.5-1.6-1.5-1.6-2.7 0-1.2.6-2.2 1.6-2.7 1.9-.9 2.9-6.3 2.9-8.3 0-1.4 1.7-2.8 4.1-4.6 1-.7 1.8-1.4 2.5-2.1.6-.6 1.4-1.7 2.3-2.9 2.4-3.3 5.4-7.4 8.4-8.2 3.6-.9 6-2.6 6.4-2.9.3-.5 1-1.8.7-2.9-.2-.7-.7-1.2-1.6-1.6l-.5-.2c-7.6-3.3-9.3-4.5-9.6-5.4-.1-.2-.2-.6-.4-1-.9-1.9-1.8-4.1-.9-5.5.4-.8 1.3-1.2 2.5-1.3 2.5-.2 4.9-.4 6.9-.4 1.4 0 3.4.1 4.7.4 1.4.4 5.6.7 8.8 1h.2l.2.1c1.7.8 10.1 5.1 12.4 7 2.3 1.8 9.9 3.7 12.4 4.3l.5.1c2 .5 8.1 1 10.4 1 .7 0 1.6.1 2.5.4l.8.2-.1.8c-.2 1.7-.6 4.9-.9 6.4-.2.8-.6 1.4-1 2.1-.6 1-1.4 2.2-2 4.9-.5 2.2-1.9 3.3-4.2 3.3-1 0-2.1-.2-3.5-.4-.4-.1-.8-.1-1.1-.2-.2 0-.5-.1-.7-.1-1.9 0-3.5 1.4-5.1 2.8-.5.4-1 .8-1.4 1.2-1.4 1.1-2 2.5-2.6 4-.5 1.2-1 2.3-1.9 3.4-2.4 2.9-6 3.1-6.7 3.1-.5 0-1.6.1-2.7.1-2.8.2-6.9.4-11.3.4-5.3 0-10.4.7-14.2 1.2-.9.1-1.6.2-2.3.3-3.5.4-4.2 6.2-4.3 7.1l1.8 1.6-2.5.1c-1.6.1-3 .1-3.7.2h-.4l-.6-.3z"/><path id="ardabil" d="M306.3 208.4c-.5 0-.9-.2-1.5-.4l-.9-.3c-1.5-.4-2.2-1.9-2.2-2.7 0-.5-.4-1.3-.9-1.9l-3-.8-.2-.4c-.3-.6-.6-1.2-.8-1.5 0 0-.3-.3-1.8-.3-.4 0-.9 0-1.3.1h-.3l-3.3-2.1-2.7-3.7-2.6-1.3-3.1-3.1-.1-.3c-.2-.6-1-3.7-1-5.2 0-1.1-1-3.5-2-5.2-.5-.8-2.2-3.5-3.3-4.6-.3-.3-.7-1-.6-1.9.2-1.2 1.3-2.5 2.6-3.2 1.7-.8 3.3-1.4 3.9-1.6.3-2.4.6-5.2.6-6.1 0-1.2-1.9-2.8-3.5-3.4l-.5-.2c-1.6-.6-3.8-1.5-6.5-2.1-.9-.2-1.5-.5-1.7-1l-.1-.1v-.1c-.2-.7.4-1.6 2.1-2.9.2-.1.3-.3.3-.5 0-.6-1-1.4-2-2.4-1-.9-2.2-1.9-3-3.2-1.4-2.1-1.4-3.9-1.3-5.8 0-.8 0-1.7-.1-2.6-.3-2.4-.8-6.3-1-7.7-1.6.4-4.4 1.3-5.6 2.5-.7.7-2 1-4.3 1-1.2 0-2.5-.1-3.5-.2-.9-.1-1.8-.1-2.4-.1-1.7 0-6-.3-9.2-3.1-2-1.7-6.7-3.9-8.6-4.7l-1.7-.8 1.6-1c1.7-1 4.6-2.9 5.8-3.6 1.7-1 4.6-4.7 4.9-5.5.3-1 3-7 3.7-8.1.2-.3.6-.6 1.1-1.2.7-.6 1.6-1.5 1.5-1.9 0-.1-.1-.1-.2-.2-.9-.5-3.4-1.9-5.4-3l-.8-.5 2.9-5.7.7.1c.4 0 1.1.1 1.9.3.2 0 .4.1.7.1 1.3 0 2.8-.6 3-1.2.5-1.5.6-2.9-1.5-4-2.1-1-1.6-5-1-9 .1-.8.2-1.5.2-1.9 0-.8-.4-4.4-.8-8.3v-.2c-.5-5-.9-8.9-.9-9.9 0-2-.3-3.5-1.9-4.8-1.1-.9-5-3.2-8.3-5.1l-1.3-.7 2.4-1.9 2.6-1.3 4.3-1.4 1.2-.1.5-.3 3.1-2.9 8.1-4.1 3.4-3.2 1.3-.8 1.7-.5 4.5.1.4-.1.4-.3 1-1.3 1.6.4 1.4.8 3.6 3.2 9.9 10.7 4 3.4 1.7 2.3 1.9 3.7-3.1.9-3.1 1.9-3.8.7-1.7.8-1.5 1.3-.9 1.6-.1 1.8.7 1.6 1.3 1.6 3.1 2.8 3.4 1.3 1.2 1.1 1.8 3.7.4 1.1v1.3l-.4 1.2-.5 1-.8 1-2.7 1.6-10.4 1.6v.2l-.2.9-3.3 1.9-.2.3.1 2.3.9 1.6 3.6 2.6 7.7 3.5 1 .9.7 2.1-.3 1.4v.6l2.7 1.9.9 1.3.7.6h1.2l2.9-1.3h2.3l1 2.2.4 1.8.5.6 1 .8.9 1.4 1 1 .9 1.1 2.2 2.6 1.6 2.4 1.5 1.4 2.9.2-1 1.4 2.5 9.9v.2c-.5 3.7-1 8.4-1 9.8 0 1.8-.9 6-4.1 8.7-2.4 2-1.1 4.9.6 8.3.2.3.3.6.4.9 1.5 3 2.6 5.6 1 8.7-1.4 2.8-1 5.7.9 7.2s4.8 6.6 6.1 9.1c.7 1.3 1.8 2.7 2.9 4 .6.7 1.1 1.4 1.6 2 1.6 2.1 1.6 5.1 1.6 8.6 0 1.2.4 2.4 1.1 3.4l.6.9-1 .5c-1 .6-3 1-4.5 1-.7 0-1.3-.1-1.6-.4-.7-.4-2.1-.5-3.4-.6-1-.1-2-.1-2.6-.4-.1 0-.2-.1-.4-.1-.6 0-1.8.4-3.9 2.5-.1.8-.6 1-1.1 1z"/><path id="azerbaijan-east" d="M212 235.1c-1-.6-3.6-2-4.9-3.1-.6-.5-1.2-1.4-.7-3.1.3-1 .9-2.2 1.7-3.2.7-.9.6-1.3-1.2-3.1-.5-.5-1.1-1.1-1.8-1.9-2-2.3-1.6-4.9-.9-6.3l-8.2-1.9c-.5.4-2.6 2.1-5 3.3-.9.5-2.3.7-4.1.7-2.8 0-5.9-.5-7.8-1-.2 0-.3-.1-.5-.1-1.8 0-3.8 2.6-5.2 4.5-.4.6-.8 1.1-1.1 1.4-.8 1-2 1.4-3.5 1.4-1.6 0-3.7-.6-6.2-1.7-3.9-1.8-3.7-4.2-3.5-5.4v-.5c0-1.2-.5-4.4-.7-5.3-.3-1.9-4.6-3.8-5.8-3.8-.6 0-1.7-.2-3.4-.7-1.6-.4-3.4-.8-5-1-3-.3-7.9-6.4-8.5-7l-10.1-15.1-16.9-45.2-3.7-6.7v-.1c-.1-.1-1.3-3.7-1.3-5v-5.8l.6-.3c.5-.2 4.8-1.9 7.5-3.1 1.9-.8 2.7-1.5 3.4-2.2.5-.4.9-.8 1.5-1.1.3-.2.4-.4.5-.8.4-1.6-1.1-4.3-1.9-5.5-1.4-2.1-1.4-5.5-1.4-7.2 0-1.6 0-6.3.3-8.7v-.2c.3-2.3.7-5 2.7-6.6 1.8-1.5 4.2-3.6 4.6-3.9l.8-.9 1.1 1.2 1.1.6 1.1.5 1.6.4 1.3.7.5.1 1.6.1 3.3.7 5.3.1 4.5 1.6 12.3 2.3 3.9 1.7 3.2.7h.4l3.7-.5.8-.4 3-2 1.3-.6.9-.3h2.3l1.4-.5h.9l1 .1L185 88l.7.2.8-.1 1-.3.9-.5.8-.6.7-.7.6-.9 1.6-3.1.9-1.2 1.3-.9 3.4-1.6.6-.6.9-2 .8-1.2 1-.5 1-.5.3-.2.2-.2 1.5-2.4.9-1 1.1-.8 1.3-.5h1.3l1.7.7.6.1.4-.1 3.3-1.8.2-.1.5-.5.2-.3.9-2.7 2.2-3.1.2-.6.7-.9 3-1.7 5.9-2.1 2.2-1.2 1.8-1.7 3.1-3.6.8.6c1 .6 7.1 4.1 8.6 5.3 1.7 1.4 2.1 3.1 2.1 5.2 0 1 .5 5.7.9 9.8v.2c.5 4.6.8 7.6.8 8.3 0 .4-.1 1-.2 2-.4 2.6-1.1 7.5.8 8.5 2.9 1.4 2.1 3.7 1.8 4.6-.4 1.1-2.4 1.6-3.4 1.6-.3 0-.6 0-.9-.1-1-.2-1.8-.3-2.1-.3l-2.5 5c1.1.6 4.4 2.5 5.7 3.1l.9.5-.5.9c-.3.5-.9 1-1.5 1.6-.4.4-.8.8-1 1.1-.6 1-3.3 6.9-3.6 7.9-.4 1.1-3.4 4.8-5.1 5.8-1.3.8-5 3.1-6.6 4.1 1.6.7 7.3 3.2 9.6 5.2 3 2.7 7.2 2.9 8.8 2.9.7 0 1.5.1 2.4.1 1.2.1 2.4.2 3.5.2 2 0 3.3-.3 3.9-.9 1.2-1.2 3.8-2.1 5.3-2.5l1.1-.3.2 1.1c.2 1.4.6 4.9.9 7.2.1.9.1 1.8.1 2.7-.1 1.8-.1 3.6 1.2 5.6.8 1.2 1.9 2.2 2.9 3.1 1.7 1.5 2.2 2 2.2 2.7v.2l-.1.2c-.1.2-.2.3-.4.4-.6.5-2.1 1.6-1.9 2.4.1.2.4.6 1.4.8 2.7.6 4.9 1.5 6.5 2.1l.5.2c1.6.6 3.8 2.4 3.8 3.9 0 1.1-.4 4.5-.6 5.9l-.1.6-.6.2c-.6.2-2 .8-3.5 1.5-1.2.6-2.2 1.8-2.4 2.8-.1.6.1 1.1.4 1.4 1.2 1.2 3 4.1 3.3 4.7.1.2 2.1 3.8 2.1 5.5 0 1.3.7 4.1 1 5.2l2.8 2.8 2.8 1.4 2.7 3.7.4.3-.7 1.8h.1c-.2.1-4.4 2.4-5.7 2.7-2 .5-3.4 1.2-3.9 1.9-.6.9-3 3.7-5.8 4.4-.7.2-1.4.3-2.1.3-2.2 0-4.5-.8-6.7-2.3-.6-.4-1.4-.6-2.2-.6-2.6 0-5.3 2.1-5.8 2.6-1.1 1.1-6.8 3.7-8.8 4.4-2 .7-3.6 1.6-4.9 2.9-.3.3-.5.7-.8 1.1-1 1.7-2.5 4-8.1 4.3-5.8.3-8.3 6.4-8.9 8.3l-.2.7h-.7c-1.1 0-3.9-.1-6.5-.7-.5-.1-.9-.1-1.3-.1-1.3 0-1.7.5-2.2 1.7-.1.3-.2.5-.3.7-.5 1-1.6 2.3-2.3 3l-.5.6-.4-.4z"/><path id="azerbaijan-west" d="M129.1 290.2l-.7-.6-2-.7-1.2-.3H124l-1.8.8-1 .3-1.2.8-1.7.5-1.7-.3-1.5-1.4-.6-1.6.5-1.9.8-1.5.6-1 .2-.9-.6-1-1.9-2.3-.4-1.9.2-3.2-.2-.8-.7-.6-1.3-.9-.7-1.8 1.1-.7-.5-.6-.5-1.5-.1-3.1-.3-1.5-.5-1.5-.7-.7-.9-.1-3.1 1.2-2.1.2-2.1-.9-1-1.1-.3-.9-.1-.7-.2-.6-.4-.5-.6-.5-.5-.9-.1-.8-.4-.5-1.2-.9-1.1-1.5.2-1.8.6-.7.5-.1v-.9l.7-2.6 1.2-2.4.1-.9-.6-1.3-1.4-2.3-.6-.9-.6-.3h-.7l-1-.3-.9-.6-.5-.6-.4-.3-.5-.1-1.9.1-1.8-.5-1.6-.9-.8-1.9.9-2.2 2.2-2.5.7-1.1.2-1.2-.2-1.3-.5-1-.5-1.5.4-2.5.7-.7v-.2l-1.2-.6-.6-.7h-.1l-1.4.3-1-.2-.7-.7-.3-1.3v-.1l-.1-.1-.3-.1-.7-.2-.6-.9-.6-1.5v-1.1l.9-2.2.3-.9-.3-.8-.6-1.2-.3-1.8.7-1.7 1-.8.7-.4.4-.5.1-1.5-1-1.1-3.4-2.1-.7-1.2-.4-.9-2 .3-1.1-1.1-.8-1.9-.4-.3-2.1-.2-1.4-.7-.5-1.9.7-2-.2-.9-.3-1.5.1-1.9.4-1.8.4-1.2-.1-.6-1-.8-1.6-1.6.4-2.8.6-.9 2.1-1.5.2-.4-1.9-2.2-1.3-1.1-1.3-.6-1.2.1-.6.3-1.2.5-1.6-.2-.7-1.5v-.7l.1-.5h-.1l-1.1-.2-.9-1.2-.5-1.1-.2-.8-.1-.2-.4-.3-2-.9-.4-.1-3.8.5-2.6-.5-1.5-2.2.4-1.4.7-.8.3-.5v-.5l-.3-1 .1-1.3.5-1.1.4-.6v-.1l.7-1.2 1.4-1.5.4-1 .5-1.4.7-1.1.9-.8.8-.3-.3-.9.2-1.2.9-.7.8-.3.2-.3.4-.9.3-1.1.2-1.2-.3-3.7 2.1-2.1 2-1.6 1-1.3v-.5l-.3-.8-.6-.8-.6-.4-.5-.2h-.4l-2 1.1-3.3-.6-1.1-.4-.9-.7-.4-1.1.2-1.3v-.5l-.1-1.7v-1l.7-2.8.1-1-.6-3.5.3-2.8v-1.3l-.3-.7-.2-.2-.3-.2-1-.3-1.8-.9.7-1.4.5-.5-.2-.8-.3-.9-.1-1 .2-1.6 1.6-4.9-.2-1.2-2.8-1.3-.5-1-.9-1.2-.7-1.6-.2-.7-.3-.6v-.9l-.7-.6-.6-.8-.2-1.2-.1-.3-.6-1 1.2-2 1-.7.2-.4-.5-2.6.4-1.4 1-1.9-.2-.9-1.9-1.2-2.6-1.3-1.9-1.4-.2-1.2.4-1.3v-.2l-.6-1.3-.4-.6v-.9l.1-.5v-.1l-.7-1.2-.3-1.5-.2-.4-1.5-1.6-.6-1.8 1.2-1.4 1.4-.8 1-.4h1.2l1.2.1 1.2-.1 3.3-.8 1.7.2 4 1.8 1.2.1 1.1-.2 2.8-1.1 1-.6.6-.9.1-.9-.2-1.3.3-2.5h.5l.1-.2.1-.4-.2-1-.1-1.1.1-1.4.2-1.1 2-3.6.3-.8.2-.8-.3-2.3.3-1.3 6.7-4.9 2-.6 1.5.8 1.7 2.4.6.6 3.4 1.4 1.2 1 4.9 3.3.1.1.7.3 1.2.2 2.9.2-.7 1.1.6.4.9 1.8L94 47l.6 1.1 1.7 1.4-.5 1 1 .7h.5l1 .2.5.8.1.2 2.1 1.3.5.7.2.5.4.6.4.4.5.1.7 1 1.4 2.9.5.7.5.9.6 3.6v.1l1-.3 5.8 1.7.3-.2.9-.4 1.5.3.3 1.2-.1.6.7.2 1.2.6.6 1.6-.5.9.9.5.8.8.3.7.5 1.5.2.3.2.2 1.5.7.7.9-.2 1.3-.3.6-.2 1.4-1-.3c-1 .8-3 2.6-4.6 3.9-1.9 1.6-2.2 4-2.6 6.3v.2c-.3 2.3-.3 6.9-.3 8.6 0 1.6 0 4.9 1.3 6.9.9 1.4 2.4 4.2 2 5.9-.1.5-.4.9-.8 1.1-.6.4-1 .7-1.5 1.1-.8.7-1.6 1.4-3.6 2.2-2.7 1.2-7 2.9-7.9 3.3v5.5c0 .9.7 3.1 1.3 4.8l3.7 6.7 17.3 45.2 10.1 15.1c1.8 2.2 5.8 6.6 8.1 6.8 1.6.2 3.4.6 5 1 1.4.4 2.7.7 3.3.7 1.3 0 5.9 2 6.2 4.2.4 2.6.7 4.5.7 5.4v.5c-.1 1.3-.4 3.3 3.2 5 2.4 1.1 4.4 1.7 6 1.7 1.4 0 2.4-.4 3.1-1.3.3-.4.7-.9 1.1-1.4 1.5-2 3.5-4.7 5.6-4.7.2 0 .4 0 .6.1 1.5.4 4.7 1 7.6 1 1.7 0 3-.2 3.9-.6 2.1-1 4-2.5 4.7-3.1l.4-.3 9 2.1-.4 1.1c-.3.9-.9 3.2 1 5.3l1.8 1.8c1.6 1.6 2.4 2.4 1.3 3.8-.7.9-1.3 2.1-1.6 3-.2.8-.3 2 .5 2.6 1.4 1.2 4.4 2.8 5.1 3.2.6-.6 2-2.1 2.5-3.1l.3-.6c.4-.9.8-2 2.6-2 .4 0 .9.1 1.4.2 2.6.5 5.4.6 6.4.7h.7l.2.7c.8 2.4 2.7 8.1 3.5 10.1 1 2.5 3.5 11.6 4 14 .5 2.7.5 7.7-1 10.2-1.6 2.6-6.6 5.1-10.2 5.1-4.1 0-6.8-1.3-7.2-3.7-.4-2-1.7-2.2-4.3-2.6-.3 0-.6-.1-1-.2-3-.5-4.6-1-6.2-3.6-1.2-1.9-3.1-2.9-5.8-2.9-.8 0-4.5.5-8.8 1.2-5.7.9-12.2 1.8-14.2 1.8-3.2 0-5.7-.3-6.2-4.2-.3-1.8-1.1-2.1-2.5-2.1-.6 0-1.2.1-1.8.1-.8.1-1.6.2-2.5.2-3 0-6.4.8-7.3.9v7.8c0 1.9-.3 5.1-2.2 5.7-1.4.5-5.9.5-10.6.5-2.6 0-4.3 2.1-4.3 5.3 0 3.1-.6 3.8-3.3 3.8-2.5 0-3.8 3-3.8 4.3 0 1.4-.4 6.1-.5 7l.5 2.7-1.7-1.8z"/><path id="bushehr" d="M549.3 890l-3-1.4-4.7-2.2-1.6-1.8-.1-2 .8-1.5 1.5-.6 1.4-.1h1.2l.9-.1-.2-.8-.6-.6-2.4-.9-1.1-1-.6-1-.9-2.3-.3-.5-4.3-4.6-1.8-1.5-2-.9-10.4-2.4-2.4-1.3-6.9-6.7-2.1-1.4-2.2-1-2.5-.4-4.1.6-1.4-.4-1.1-.8-1.1-.3h-2.6l-3.4.8-1.4.1-6.6-.5-1.2-.3-.6-1-.1-.7-.1-.3-1.5-.5-1.4-1.2-2.8-3-.8-1.1-.7-1.5-.2-1.7-.4-.6-1.1-.5-2.8-.8-1.4-1-4.2-4.2-.7-.9-.3-1.3-.1-2.1 1.3-3.7-.1-1.5-1-1.7-2-1.9-.8-1-2.1-3.4-1.9-2.1-.6-.9-3.6-9.4-.5-2.4-.1-8.8-.6-2.8-1.2-2.3-1.3-1.6-1.6-1-2.3-.5-2.4-.2-1.5-.4-.8-1.1-.5-1.4-2.7-3.6-.6-1.5-.3-2.1.3-2.3 2-1.4 1.7.8 1.4 1.2.2.3.6-.8 1.1-1 .2-.5.2-1.2-.2-1.3-.1-.1-1.3.4-.7-2.9-.2-.4-.1-.1-.3.2-1.3.3-.7-1.1-.1-1.4v-.1l-.7-.1-4.4.2-.8.2-1.6 1.1-2.3-.3-1.8-1.6-.6-2.3-.2-1.9.3-1.1.6-1 .4-.8.5-1.4 1.5-1.3v-.4l-.6-.6-1-1.8.5-2v-2.5l-.3-2.6-.5-1.7-.6-1.2-.4-.5-1.8.3-.3-.7-1.6-2.4-3.1-2.6-.6-1.1-.4-1.2-.8-1.1-1.7-1.8-3.6-1.4-.8-1.1-.4-1.4-.7-1.1-1.6-1.8-1.7-2.5-2.6-5-1.3-2-.9-.9-2.5-1.5-2.4-2.6-.3-.5-.3-1-.1-1.3-.5-1.7h.1l.8-2.9-1.4-3.9.3-1.5-.5-.4-1-1.4-1.3-2.3 1.5-.2c.1 0 2.4-.4 2.7-2.8.3-2.3 1.2-5.2 2.1-5.9l.7-.5.6.6c.7.7 1.7 1.5 2.8 2.3l.1.1c.8.7 1.8 1.4 2.8 2.3 2.3 2 4.5 2.9 4.6 3l5.9 2.2.1.6c.2 2.2.7 6.3 1.8 8.3.8 1.5 1.3 2.9 1.7 4.1.4 1.2.7 2.1 1.2 2.6.6.6 2.4 1.4 3.8 1.9h.1l.1.1c.5.3 3.1 2.1 3.5 4.9.1.8.1 1.6 0 2.1-.1.7-.1 1.2.2 1.5.4.5 1.7.7 4.1.7 2.3 0 4.7-.2 7.1-.4 2-.2 4.1-.3 5.7-.3 2 0 3.2.2 3.8.7 1.3 1 6.2 2.2 9.9 2.9l.7.1.1.7c.2 1.3 1.4 7.7 1.4 9 0 1.4 1.9 4.3 5.8 4.8 4.1.5 10.7 4.6 12.2 7.1 1.4 2.3 4.4 6.9 7 9.5 1.1 1.1 3 5 6 11.2 2.9 6.1 6.2 12.9 8 14.8 3.3 3.3 3.1 8.1 3.1 10.2v.5c0 1 2.7 10.1 4.8 17.4l.1.3c1.6 5.5 2.9 10.2 3.1 11.2.5 2.4 4 11.4 7.4 13.8 1.4 1 3.3 1.9 5.1 2.8 2.9 1.4 5.5 2.7 6.5 4.3.6.9 1.7 2.2 2.9 3.6 2.9 3.3 4.1 4.9 4.1 6 0 1.9.5 9.4 2 11.9 1.2 2.1 6.7 7.3 8.5 9h.1c2.6 1.3 5.9 3.4 7.6 5.5.7.8 1.1 1.6 1.6 2.3.6 1 1.2 1.9 2.2 2.7.6.4 1.2 1.3 2 2.4.6.9 1.3 1.8 1.9 2.6l1 1.1-12.8 4.4-.2 1.4-3.2-2.1z"/><path id="chaharmahal-bakhriari" d="M446.3 620.5c-2.9 0-4.8-4.2-6.3-8.2-1-2.6-1.9-2.6-2.5-2.6-.4 0-.9.1-1.3.2-.6.1-1.2.3-1.9.3-2.7 0-5.1-1.6-7.5-5.1l-.5-.7c-1.7-2.4-1.7-2.4-3-3.1l-.4-.2c-.4-.2-1-.3-1.6-.3-2 0-4.5 1-6.2 2-1.6.9-2.9 1.5-4.1 1.5-.7 0-1.3-.2-1.8-.5-1.4-.9-5.1-3.2-5.8-3.7l-.8-.5.4-.8c.9-1.8 4.6-6.5 7.7-10.3-.6-1.1-1.9-3.1-2.8-3.8-1.4-1-3.7-3.4-5-4.7-1.3-1.3-.3-7.5-.1-8.7-1.6-1.5-7.2-6.4-8.9-7.5-2.1-1.4-7.9-7.6-9.4-9.4-1.8-2.1-3.7-7.5-3.4-9.2.1-.3.1-.6.2-.8.4-1.3.7-2.4-1.1-3.9-1.2-1-3.2-3-5.2-5l-.1-.1c-1.9-1.9-3.9-3.9-4.7-4.6-.7-.5-2-1.7-3.5-3.1l-.1-.1c-2.3-2.1-5.1-4.6-6.7-5.8-1.2-.9-2.7-3-4.6-6.3l-.7-1.2 1.4-.3c.5-.3 3.4-1.7 5.2-2.9 1.6-1.1 5.5-3 7.2-3.8l.9-.4.5.8c.3.6.7 1 1.1 1.4 1.2.9 3.6 2.4 5.7 3.7l.3.2c2 1.2 3.7 2.3 4.3 2.8.2.1.4.3.6.5.8.7 2 1.6 3.3 1.6.7 0 1.4-.2 2.2-.7 1.4-.9 2.8-1.4 4.2-1.4 1.6 0 3 .6 4.1 1.8 2.1 2.1 6.3 5.7 7.6 6.3.1 0 .2.1.4.1 1.6 0 4.9-2.3 6-4 .2-.4.5-.8.7-1.2 1.1-1.9 2.3-4.2 5.3-4.2h1.4c2.7 0 5.7-.8 8-1.5 1-.3 1.8-.5 2.4-.6.5-.1 1-.3 1.6-.5.9-.4 1.8-.7 2.6-.7 1.1 0 2 .5 2.7 1.6 1 1.5 1.7 3.1 2.4 4.7.7 1.7 1.4 3.2 2.2 4.2 1.5 1.8 2.8 4 1.4 6.6-.7 1.3-1 3.7-.1 5.7.7 1.6 1.9 2.5 3.6 2.9 4.8 1 7.5 1.7 8.2 4.5.7 2.8 2.4 4.9 4.5 5.5 2.4.7 5.8 3.4 6.8 5.5 1 1.9 1.6 7.9 1.7 8.7v.1c.3.8 2.5 6.3-1.1 8.6-4.3 2.7-3.9 5.6-3.6 6.7.3 1 .1 4.7-1.1 13.9-.3 2.4-.5 4.4-.5 4.9 0 .6.6 4.7 1.2 9l.1.5c.5 3.1 1 6.6 1.4 9.7l.2 1.4-5.8-1c-.4.1-2.1.4-3.2 1.3-.4.3-.8.8-1.2 1.3-.9 1.2-2.1 2.6-4.2 3.1-.4-.2-.6-.2-.9-.2z"/><path id="fars" d="M611.6 905.7c-1.3-.6-4.4-2.3-6.4-3.6-1-.7-2.3-1-4.1-1-.8 0-1.6.1-2.3.1-.8.1-1.5.1-2.3.1-3 0-4.8-1.7-6.5-3.4-1.1-1.1-2.7-2.1-4.4-3.1-.8-.5-1.6-1-2.3-1.5-2.4-1.6-12-5.4-15.4-5.4-2.4 0-4.3-2.7-5.8-4.9-.7-1-1.3-1.9-1.9-2.3-1-.8-1.6-1.7-2.3-2.8-.4-.7-.9-1.5-1.6-2.3-2-2.5-6.2-4.7-7.4-5.3l-.1-.1-.1-.1c-.7-.7-7.2-6.7-8.6-9.1-1.5-2.6-2-9.9-2-12.1 0-1.1-2.2-3.6-4-5.6-1.3-1.4-2.4-2.8-3-3.7-.9-1.4-3.6-2.8-6.2-4.1-1.9-.9-3.8-1.8-5.2-2.9-3.6-2.6-7.1-11.6-7.6-14.2-.2-1-1.7-6.1-3.2-11.5-3.1-10.9-4.8-16.6-4.8-17.5v-.6c0-2 .2-6.7-2.9-9.8-1.9-1.9-5.1-8.5-8.1-14.9-2.5-5.1-4.8-10-5.9-11.1-2.6-2.6-5.6-7.2-7-9.5-1.4-2.4-7.8-6.4-11.8-6.9-4.1-.5-6.2-3.6-6.2-5.2 0-1-.7-5.4-1.5-9.3-1.2-.2-8.5-1.6-10.4-3-.6-.4-1.7-.6-3.5-.6-1.5 0-3.5.1-5.7.3-2.4.2-4.8.4-7.1.4-3.1 0-4-.3-4.5-.9-.4-.5-.4-1.1-.3-1.9.1-.6.1-1.2 0-2-.2-1.2-.8-2.3-1.9-3.4l-.6-.6.5-.6c0-.4 0-2 1.1-3.1.7-.7 1.7-1.1 3-1.1h.8c.6.1 1.2.1 1.8.1 2.6 0 4.9-.6 6.1-1.7.5-.5.8-1.1.8-1.7 0-1.9.6-6 .9-8.5l.1-.5c.2-.6 1.6-6.2 4.2-6.2 1.9 0 6.6-1.9 8.8-2.9 2.3-3.5 4.4-8.1 3.5-9.7-1.2-2-3-7.4-4.3-11.2l-.4-1.2c-.8-2.3-1.4-4.6-.6-5.7.3-.4.8-.7 1.5-.7 2.8 0 4.5 1.3 6.2 4.6 1.5 2.9 5.4 6.4 8.3 6.4.7 0 1.5-.1 2.3-.1.8-.1 1.7-.1 2.5-.1 1.3 0 3 .2 3.9 1.3 1 1.3 2.7 2.7 4.7 2.7.5 0 1-.1 1.5-.3 2.4-.9 4.3-3.4 4.3-5.3v-7.4L487 651c0-.4-.8-8.7.7-11.2.7-1.2 1.3-3.6 2-6.2s1.3-5.1 2-6.3c1.6-2.7 5.4-12.5 5-15.8-.4-2.9-1.6-10.4-2-12.8v-.3l.1-.3c1-2.2 4.2-9.7 6.5-11.9 1.5-1.5 6.5-4.9 11-4.9h.4c2 .1 3.7.9 5 2.4 4.6 5.6 9 6.4 11.3 6.4 2.4 0 11 .4 11.9.5h.2c.4.1 3.9 1.1 7.6 1.1.6 0 1.2 0 1.8-.1l.6-.1.3.5c.7 1 3.3 4.6 6.2 7.1 1.6 1.4 2.4 3 2.1 4.7-.2 1.4-1.3 2.7-2.7 3.2-1.9.8-5.2 4-6.8 5.8l8.8 10.8c5.6 3.1 21.9 12.1 24.4 13 2.9 1 7.4 7.1 8.1 8 1.5.1 16 1 17.9 1 1.6 0 2.8 1.1 4.3 2.5.6.5 1.2 1 1.8 1.6 2.7 2.2 3.1 5 3.1 7.7 0 2.9.5 13.5.5 13.9v.2c-.1.7-.5 6.6-2.1 8.2-.7.7.2 3.7 3 8.2l.1.1c.6.5 5.1 3.9 6.7 5.9 1.7 2.1 3 7.7 3 10.2 0 1.9 2.1 5 3.3 6.5v.1l5.4 9.1c2.1-.2 10.9-1.3 12.4-1.7.5-.1 1.3-.2 2.5-.2 2.5 0 6.1.3 7.7.6 1.9.4 11.1 1.5 12.2 1.6l.5.1.2.4c.5.9 2.2 3.8 3.6 5.9.8 1.2 4.9 6.2 9.3 11.6l.4.5c4.8 5.9 10.2 12.6 11.7 14.7 2.9 4.2 1.3 16.9.4 19.5-.4 1.1-.2 3.8.6 7.2l.1.5-.1.1.1.1.1.5c.2.8.3 1.3.4 1.5 2.8 3.6 6.3 7.7 7.4 8.3 1.2.6 3.2 2.6 3.5 4.6.2 1.1-.1 2.1-.9 2.9-2.8 2.8-2.9 6.5-2.9 7 0 .6-.3 6.9-.6 13.9l-.1 1.3c-.3 6.1-.6 11.9-.6 12.5 0 1.2 2.1 4 4.1 5.2 1.3.8 2.5 3 3.6 5.1.7 1.3 1.3 2.6 2 3.4 1.8 2.2-.4 5.3-2.5 8.3-2 2.9-13.5 16.9-15.1 18.5-1.7 1.7-6.3 4.3-8.1 4.3-1.6 0-9.7-.4-14.7-.8l-2-.2c-6.2-.5-17.8-1.5-21.9-1.5-3.1 0-5.9.6-8.8 1.2-1.4.3-2.9.6-4.6.9-4.5.8-13.2 6-14.8 6.9.6.7 1.9 2.5 3.2 4.4 1.7 2.5.2 4.6.1 4.8v.2c-.7.7-5.9 6.4-7.1 7.9-1.2 1.6-6.7 3.9-7.3 4.1l-.4.2-.5-.4z"/><path id="gilan" d="M371.9 247.6c-1.8 0-3.5-.7-5.3-1.5-1.7-.7-3.5-1.5-5.2-1.5-3.8 0-7.8-2.7-9.2-4.6-1.4-1.9-7.7-8.2-8.4-8.9l-.1-.1-.1-.2c-1.5-3.5-4.3-9.8-5.4-11.3-1.2-1.6-8.7-9.2-12.5-13-.3-.2-3.1-2.2-3.1-5.7 0-3.4 0-6.4-1.4-8.4-.5-.7-1.1-1.3-1.6-2-1.1-1.3-2.2-2.7-2.9-4.1-1.4-2.7-4.1-7.6-5.9-8.9-2.2-1.6-2.6-4.8-1.1-7.8 1.5-2.9.5-5.4-1-8.3-.1-.3-.3-.6-.4-.9-1.5-2.9-3.4-6.5-.5-8.9 3.1-2.6 3.9-6.6 3.9-8.3 0-1.9.9-9.3 1-10l-2.5-9.9-.8-1.6 1.9.1 1.2-.4 1.4-.5 1.3-.8 1.2-1 1.6-.9h2.3l4.7 1 .2 7-.7 2 .4 1.2.1 3.6 1.1 2.5.9 8.6 2.5 8.2-.5 1.7v1.3l.2 1.3.4.9 2.1 3.3v1.1l-.1.8-.1.3.5 2.4 1.1 2.4 2.9 4 3.8 3.8 4.2 2.7 9.3 4.6 4.2 1.3 22.3 2.9 2.1-.3 2-.8 2.3-.4 5.3 2.5-1.5.3 1.4.5 7.6 1.6 2.9 1.1 2.4 2.2-.2 2.7.4.7.7 2.5.5.9.8 1.4 1.4 3.7 1.7 2.5 1.9 1.8 4.2 3 2.9 3.3.6.4 1.1.3 3.8 2.5-1 .8-3 7c-.7 1.5-3.1 6.7-4 8.9-1 2.4-6.3 7-7 7.5l-.4.6-.8-.2c-.6-.2-1.2-.4-1.8-.7h-.1c-2.7-1-4.7-1.7-5.9-1.7-.3 0-.5 0-.7.1-.4.2-1 .5-1.7.9-3.8 2-8.1 4.3-10.4 4.6-2.8.3-11.9.3-15.4.3z"/><path id="golestan" d="M648.3 255.1c-.3 0-.7 0-.9-.1-.6-.1-2.1-.2-5.9-.2-3.8 0-8.2.1-10.5.2h-1.4l.4-1.3c.5-1.6.6-3.9-.1-5.5-.4-.9-.9-1.4-1.7-1.7-2.3-.8-6.5-2.5-8.8-3.4h-.1l-.1-.1c-.1-.1-3.1-1.6-3.6-3.7-.5-1.9-.5-5.4-.5-6l-1.5-2.9 3.3 1.8.6.2 6.9-1.8.3-.3.2-.7v-6.9l-.2-.6-.5-.3-1.8-.7.4-2 1.1-2-1.1-1.6-1-2.8-1.3-5.8-1.8-4.4-.4-1.2-.6-7.2 17.1 1.4h.9l.7-.3.9-.9 1.4-.9 1.7-.1 1.3.2h1.1l1.9-.5 10-5.4 1.7-.2 3.6.7h1l.5-.2 1.4-1.5 1.2-.4.6-.6 2.9-1.8 1.3-.9.1-.1.1-1 .8-1.7.2-.8.1-1.5v-.2l-.1-.2-.7-.6-.4-.8-.1-1.9 1-2.3.2-1.2.4-1.3.9-1.4 1.8-2 8.8-5.6 2.6-2.7.3-.5.4-1.2 1.3-.7.8-.1.3-.1.2-.3.7-1.2.8-.9 1.4-.4 3.4-.6.2-.1.5-1.1 1.7-.8 2.8-.9.4-.1 1.1-.8 1.3-.6 4.3-3.1 1.7-.6 3.9-.2 11.5-2.3h2l3.8.9 2.4 1.2.6.2h3l1.2.4 1.6.8.6.2.7.1 8.4-1.4 2.8.2.4.3 1.6.6.6.1 4.6-.7 1.7-1.1 1.8 8.8v8.1l-6 5-1 8.5-.2.2c-1.5 2-6.7 8.7-8.9 10.9-1.6 1.6-2.3 7.1-2.4 11.6v1h-6.8c-.5.1-3.6 1-5.4 2-1.1.6-4.9 2.6-4.9 5.3 0 3.1-1.6 5.4-4.7 6.7-2.2.9-2.8 6.2-2.4 10.9v.4l-.3.3c-.8 1-5 5.9-6.4 6.8-1.3.8-6.2 4.4-8.3 5.9l-.3.2h-13.1c-4.5 0-10.7 1.7-13.3 6.4-1.5 2.7-3.9 4.8-6.3 5.4-.5.1-1 .2-1.5.2-.8 0-1.4-.2-2-.5-.4-.3-.8-.4-1.1-.4-.9 0-1.8 1-2.7 2-.7.7-1.4 1.6-2.3 2.3-2.4 2.4-9.4 4.5-12.8 4.5z"/><path id="hamadan" d="M322.5 426.7c-1.7 0-4.8-.9-5.7-2.2-.5-.7-1.4-1.9-2.2-3-.9-1.1-1.8-2.3-2.3-3-.3-.5-1.1-.7-2.4-.7-.8 0-1.7.1-2.5.2-.9.1-1.7.2-2.4.2-3.3 0-4.9 1.1-5.3 3.8-.1.7-.4 1.2-1 1.7-.8.6-2.1.9-3.9.9-1.3 0-2.6-.2-3.3-.3h-.2c-1.1-.4-6.7-2.7-9.5-4.5-3.1-2.1-4.1-6.2-4.6-8.1-.2-.7-.7-2.8-5.8-2.8-3.7 0-4.7-1.1-6.2-3.6-1.2-1.9-.2-4.1 1.1-5.3l3.9-4.4c2.6-2.6 4-4.7 4-5.4 0-1.3-.4-5.1-.5-6.3-.6-.3-3.2-1.5-5.8-1.9-2.9-.5-4.4-1-6.6-2-1.2-.6-1.6-2.7-1.9-5.6-.2-1.4-.3-2.8-.7-3.5-1.1-2.2.1-6.3 2.5-8.8 1.4-1.4 1.4-1.9 1.4-2.2 0-.1-.1-.3-.3-.5l-.7-.6.6-.8c.5-.6 3.1-3.7 7.3-3.7.4 0 .8 0 1.1.1 2.2.3 4.1.4 5.6.4.7 0 1.3 0 1.7-.1h.7c.4 0 1.1-1.2 1.1-4.8V342c-.6-.6-4.7-4.7-5.3-6.3-.4-.9-1.5-1.9-2.6-2.9-.8-.7-1.5-1.4-2.1-2-.4-.5-1-1-1.7-1.7-2.2-2.2-4.1-4.1-4.1-5.8 0-.8-.5-2.1-1.1-3.3-1.1-2.7-1.5-3.9-1-4.7.3-.4.7-.6 1.3-.6 3.3 0 10.2-1 11.8-2.6 1.4-1.4 5.6-5.2 6.9-6.3l.8-.7 1.8 2.5c.5.3 3.7 2 7.9 2.4 2.6.3 4.2 1.5 5.5 2.5 1 .8 1.9 1.5 3 1.5.8 0 1.7-.3 2.5-.5 1-.3 1.9-.6 2.9-.6 1.1 0 2 .4 2.8 1.2.8.8 1.7 1.2 2.7 1.2h.5c1.2-.2 2.3-1 2.9-2.1.4-.8.1-1.4-.7-2.5-.6-.8-1.3-1.7-1.3-2.9V305l1.2.3c2.4.5 6.6 1.6 8.1 2.3 2 1 7.9 4.9 11 7 2.8 1.9 2.7 3.7 2.7 5.5v.7c0 .9.4 1.6 1.1 2.1.4.3 1 .5 1.6.5.5 0 1-.1 1.5-.3.7-.3 1.4-.4 2.2-.4 1.7 0 3.1.8 4.1 1.5 1 .7 3.6 1.9 5.6 2.9l.1.1c.6.3 1.1.5 1.6.7l.9.4-.4.9c-.7 1.6-2.6 5.5-4.2 7.9-.6.9-.7 1.6-.5 2.3.5 1.4 2.7 2.3 4.4 2.9.7.2 1.3.7 1.5 1.2.6 1.2 0 2.9-.5 4.3-.2.5-.3.9-.4 1.3-.2.6-.4 1.5-.8 2.5-.7 2.2-1.7 5.2-1.7 6.9 0 2.7-3.2 4.3-8.8 4.3-5.1 0-7.6 9.1-7.7 9.8.1.9.5 6.6.5 8.5 0 2.3-1.2 4.8-3.8 4.8-1.2 0-1.6.8-2.2 2.6-.4 1.1-.8 2.3-1.6 3.3-1.6 2-1.2 5.6-.9 6.8l2.5 8.5c1 2.9 3.4 8.9 4.9 10.9.6.7.7 1.6.4 2.5-.7 2-3.5 4-5 4.4-1.3.3-3.2 1.1-4.8 1.7-.9.4-1.7.7-2.2.8-.3-.7-.6-.7-1-.7z"/><path id="hormozgan" d="M922.6 1021.8l-.6-.6-.5.2-.9.3-1.6-.1-1.3-.3-1.3-.5-.9-.9-2.7-4.7-1.3-1.7-1.9-.9-2 .1-1-.6-.6-1-.2-.7-.2-.1h-5l-10.5-2.1-3.6.6-3.4-.2-2-1.1.2-.5h-.1l-1.6.3-.6.4-1.4 1.3-1.5.3-.5-.3-.3.3-.7.4-1 .3-1-.2-1.7 1.3-2.5.4-2.2-.4-1.8-.6-2-.3-2-1-1.5-2.2-1.8-3.9-1.5-2-1.6-.4-2 .5-2.2 1.2-2 1.8-1.6 1h-2.3l.4-4.2.3-1.4v-.2l-.5-1.3-.5-.5-.9-.2-1.3-.1-1.2.1-3.4.8-1.1-.2-1.2-.7-.4-.1-.5.1-1.1.3-.8.1-1.7-.2-5.7-1.9-5.8-.4-1.3-.8-.6-1.4-.4-3.4-1.4-3.4-.7-2.8-.4-1-.6-.6-.1-.4-.9-1.1-.4.1h-1l-.3-1-.2-.9-.8-2.5-.2-1.1-.6-1.3-.1-1.1.4-1.9 2-2.2.4-.9-.6-1.7-4.1-4.7.3-1.8-.3-.4-.3-3.3-.3-1.3-.6-1.1-1.1-1.1-.4-.8-.3-.8-.2-1.7v-.8l1-8.6-.2-3-3.7-15.8-.6-1-2-1.8-1-1.5.1-.9-1.4-1-2.4-2.8 3.1.4.4-.2.3-.2v-.2l-.9.1-1.2-.2-.5-.7v-.1l-.2-.1-.5-.5-.1-.1-1.2.6-1-1-.2-.6h-.1l-1.1-.8v-1.6l1.1-.5.1-.1.5-.6-.4-.1-1.7-1.2-1.2-1.7v-.2l-.6.2h-2l-1.2-.5-.8-.9-.3-.4-.2-.1-6-.1-.8-.2-.5.7-2-1.3-1.5-.3-3.6-.2-1.9-.4-3.1-1.3-1.6-.3-3.4.2-1.6.4-1.2.9-1.6.9-3.9.1-1.3.3-.2.1-.8.8-.1.1-.1 1-.8.6-.5.1-.3.2-1 .9-3.9 2.5-1.1.9v.4l-.7.4-1.1 1.1-1 .3-2.7.4-2.3.6-.8.1-2-.1h-.2l-.9.7-.8.2h-3l-1.9-.4h-.2l-.8.3-1.9 1.9-.8.4-.5.5-1.3 1.5.3 2.3-.4 2.3-.7 2.1-1 1.6-2.1 2-2.4 1.3-2.7.6-3-.1-4.8-1.7-2.3-.3-1.6.8-.5.9-.3 1.2-.9 1.5-1.8.4-1.1.2-2.5.8-.7.3-3.8 3.6-.7.4-5.6 4.9-6.3 3.9-1.3 1.3-1.2.3-1.1-.3-.9-.6-.4-.1-5 .4-3.2-.5-1.3-2-.7-1.9-1.3-1.4-2.2-.4-5.4.2-2.7-1.3-1.2-2-.9-2.3-1-1.9-1.3-1.2-.8-.1-.9.2-1.2.3-4.6.4-1.5-.2-4.1-1.2-1-.2-.9-.3-1.1-1-.2-.1h-.3l-1.1.2-3.8 1.9-2.8.4-2.4.7-1.6.1-2.7-.9-1-.1-1.6.9-1.3-.6-3.1-2.9-4.4-2.8-5.8-4.6-1.1-1.4-.4-1.6-.1-3.2-.4-1.1-.8-1-1.7-1-19.7-7-1.2-.2-1.6-.4-1.1-1.2-.6-1.2-.5-.6-3.4-.9-.9-1.1-.5-1.4-.8-.5-2.8-.8-5.5-5.3 1.8-.5 11.9-4.1.7-.3.4.4c.9.7 1.6 1.1 2.4 1.1 3.3 0 13 3.7 15.7 5.5.8.5 1.5 1 2.3 1.4 1.7 1.1 3.3 2 4.5 3.2 1.6 1.6 3.3 3.3 6.1 3.3.7 0 1.6-.1 2.2-.1.8-.1 1.6-.1 2.4-.1 1.3 0 2.9.1 4.4 1.1 2.3 1.5 5.9 3.4 6.6 3.7 3-1.2 6.5-3 7.3-4.1 1-1.3 4.9-5.5 7.1-7.9l.1-.1s1.5-2-.1-4.3c-1.1-1.7-2.3-3.2-2.8-3.9l-.7-.9 1-.6c3-1.8 10.3-6 14.5-6.7 1.7-.3 3.2-.6 4.5-.9 3.1-.7 5.8-1.2 8.9-1.2 4.1 0 15.7 1 21.9 1.5l2.1.2c5.1.4 13 .8 14.7.8 1.5 0 6.1-2.4 7.8-4.1 1.7-1.7 13-15.5 15.1-18.4 2.5-3.5 4-5.9 2.5-7.7-.7-.8-1.3-2.1-2-3.4-1-2-2.2-4.2-3.4-4.9-2.2-1.3-4.3-4.3-4.3-5.7 0-.6.3-6.6.6-13.9l.1-1.8c.3-5.9.5-11.5.5-12.1 0-.4.1-4.4 3-7.3.7-.7.9-1.5.8-2.4-.3-1.8-2.1-3.7-3.2-4.3-1.7-.8-6.9-7.6-7.5-8.3l-.1-.2-.1-.2c-.1-.3-.2-.7-.3-1.1l-.3-1.2H701.2c2 0 4.8.4 6.4 2.3 1.3 1.5 2.8 2.3 4.5 2.3 1.2 0 2.5-.4 4-1.1 1.8-.9 4.3-2.2 6.5-3.4l.2-.1c1.8-1 3.5-1.8 4.6-2.4.5-.2 1-.5 1.6-.8 2.7-1.4 6-3.1 7.7-3.4 1.8-.4 4.6-1 5.4-1.2h.1l4.5-.5-.1 1.2c-.2 1.9-2 19-2.4 20.5-.4 1.7-1.2 14.2-.4 16.2.7 1.8 2.7 5.7 5.4 7.9.3.3.7.6 1.1.9 2.5 2.1 6.3 5.4 8.4 5.7 1.7.3 4.5.4 8.3.4.6 0 2.5-.1 4.6-.2h.1c2-.1 3.9-.2 4.5-.2 1.2 0 4.4-1.2 4.8-2.7l1.3-5.2 17.2-1.3.2.9c.4 1.9 2.4 11.4 2.4 13.3 0 2.2 4.2 11.1 9.4 11.1 3.7 0 7.4.4 9.8.6 1.1.1 2 .2 2.4.2 1.2 0 3.2.4 3.2 2.8 0 1.1.4 3.1 1.1 5.6l.2.9-.8.3c-3 1.2-5.3 2.6-6 3.4-.5.7-1.6 2-4.1 4.6l-.1.1c-1 1.3-2.5 3.9-2 5.2.2.5.7.9 1.5 1 4.1.8 4 3.6 4 5.6v.5c0 1.2.4 4.2.7 6.6.3 2.4.5 3.8.5 4.3 0 1.3 1.7 5.7 5.6 6 4.2.4 6.9 3.3 7.3 4.8.1.3.1.7.2 1.1.2 1.8.6 4.2 3.4 5.4 4.1 1.8 5.7 4.2 6.8 6.4 1.2 2.5 1.6 3.2 5.6 3.2h3.3c2.3 0 4.5.1 6.1 1.8.7.7 1.4 1.5 2.2 2.3 1.7 1.8 3.5 3.7 4.9 4.8 1.6 1.2 6.1 3.5 9.7 3.5.5 0 1-.1 1.4-.2 1.1-.3 2-.5 3-.5 1.6 0 3 .7 5.2 2.6 2.5 2.2 2.7 3.5 3 4.8.1.5.2 1 .4 1.6.7 1.7 4 3.6 6.7 5.1 0 0 .9.5 1.2.7.3.2.7.4 1.1.6 2.7 1.6 6.1 3.6 8.3 3.6h.7l.2-.1 1.1-.3.2 1.1c.8 4.3 2 9.9 2.8 11.6.5 1 1.6 3.6 2.8 6.6l.2.5c1.9 4.6 4.3 10.4 5.3 12.1 1.8 3.2.7 4.2-1.8 5.8-.5.3-.8.8-.8 1.2 0 1.1 1.2 2.6 3.3 4.2 1.7 1.3 5.9 7.2 6.8 8.9l.3.6c.8 1.6 1.8 3.6 1.8 6.3 0 2.8-.8 18.5-.8 20.1l.5 1.1-1.9.3-3.3 1.7-1.5.4h-.6z"/><path id="ilam" d="M253.3 566.6l-.4-1.5-.3-.7-1.9-.9-1.1-1.3-1.3-3.1-.8-1.2-.6-.2-1.2-.1-.8-.9-.4-.6-.5-.3-.9-.3-.9-.7v-1.1l.1-1.1.3-1 .5-.7.2-.4.1-.6-.1-.4-1.2-.9-.3-.7-.5-.2-.4-.6-1.1-1.5-.2-.4-.2-.3-1.7-1.7-.4-.5-.5-1.2v-.9l.4-.4.5-1.2.3-.4v-.3l-.1-.2-1.6-1.2-1-1.4-.7-.9-.7-.7-1-.6-3.1-1h-.4l-2.5 1.4-1.3.5-2.3.2-2.2-.5-1.9-1-2-1.4-17.8-15.4-2.3-2.6-3.7-2.3-2.7-2.1-5.8-3.3-1.6-1.6-5.7-2.7-5.9-1.8-6.8.8-4.1-.5-1.8-3.9 1.3-1.5.9-.7.7-.7.2-.7-.1-.4-.6-.4-.9-.4-2.8-.3-1.4-1.3.2-1.9 1.8-.9 1.6-.2.9.1.6-.1 1-.7 1.5-1.6.7-.7.2-.5-.4-.3-.6-1.1.2-.9.3-1.2v-.4l-.3-.8-.6-.6-2-1.6-2.3-3.2-2.1-2-.4-1.4V468l-.2-1.2-.5-1.2-.5-1-1.8-2.2-.2-.1-.1-.1-1.3 1.1-2.3.3-2.1-.5-1.9-1.5 1.6-2.1 2.8-1.7.3-.5-.2-.8-1.1-.7-1.4-1.5.1-1.1-2.8.1-.7.3-1.6 1.5-1.2.9-1.8.4-1-1.2v-2.6l-.1-.3-.1-.3-2.6-1.8-2-2 1.6-.5.3-.1.3.1c.7-.3 5.7-2.8 8.2-4.9 1.2-1.1 2.1-2.3 2.8-3.2.9-1.2 1.6-2.1 2.6-2.5 1.1-.4 2.6-1.7 3-2.9.2-.5.1-1-.1-1.4-.3-.5-.7-.9-1.2-1.4-1-1-2.2-2.2-2.2-4.4 0-.7.1-1.8.8-2.4.6-.6 1.5-.6 2.3-.6.6 0 1.3.1 2.2.1.3 0 .7.1 1 .1 3.5 0 4.5-2 4.8-2.6.1-.3.2-.7.3-1.1.3-1.3.5-1.6.7-1.8l.3-.4h.5c.3 0 .9.2 1.9 1.5 2.1 2.6 5.8 4.7 8.2 4.7.3 0 .6 0 .8-.1.6-.2 1.7-.5 3.1-.5 1.9 0 3.6.7 4.9 1.9 1 1 3.2 2.9 5.6 4.9 3.1 2.6 6.6 5.5 7.7 6.8 1.3 1.5 4.1 1.7 6.5 1.9 1.2.1 2.3.2 3 .4.4.1 1.1.2 1.8.2 2.3 0 4.8-.6 6-1.4.5-.3.8-.6.8-1 .2-1.1.6-1.9 1.3-2.3.4-.2.8-.3 1.4-.3.6 0 1.2.1 2 .4 2.2.8 8.5 3 11.2 3 2.7 0 5.4-2.4 5.4-4.1 0-2.2-.4-4.3-1-5.2-.5-.7-.8-2.5-.3-3.2l.3-.4h.5c.3 0 .6.1.9.2 1.7.8 7.7 2.5 9.5 3l.7.2v.7c0 .5 0 1.1-.1 1.6.2.9.6 2.7.7 3.3 0 .1 0 .2.1.4.1.7.3 1.5-.4 2.6-.5.8-1.4 1.3-2.1 1.8-.3.2-.6.4-.7.5 0 .1-.2.2-.3.4l-.1.1c-.6.8-2 2.6-2 3l-.1.3-.2.2c-.5.5-2 1.3-3.8 2-1.3.5-2.7.5-3.4.5-.8 0-1.8-.1-2.3-.4-.2-.2-.4-.3-.6-.3-.5 0-1.2.4-1.9.8-.4.2-.8.3-1.2.3-.7 0-1.4-.4-1.7-.6-.4.4-1.2 1.2-2.2 1.5-.4.1-1 .2-1.7.2-.8 0-1.6-.1-2.3-.1.1.3.1.8 0 1.1l-.1.4-.3.2c-.3.2-1 .9-2.1 2.2.1.7.3 1.4.4 1.6l.1.1v.2c0 .1.1.4-.2 1.2l-.3.8-1.9-.3h-.1c-.2 0-1.8 0-2.4-.5-.3-.2-.6-.5-.8-.7-.3-.2-.5-.5-.8-.7 0 0-.3-.2-1.2-.2-.8 0-1.7.2-2 .2-.4.1-.6.4-.7 1-.1.3-.2.7-.4 1-.4.6-.1 1.1.5 2 .5.8 1.4 1.7 1.7 1.9l2.1 2c2.4 1.4 4.3 2.4 4.8 2.6.6.2 1.1.7 1.4 1.3.2.5.2 1.1-.1 1.6-.6.9-.3 1.3.3 1.9.4.4 2.2 1 4.2 1.3.5.1 1.4.4 1.7.6l.2.1.1.2c.3.4 2.6 2.2 3.1 2.5.6.4 1.2.7 1.8 1.7.1.1.2.3.2.4.4.8.7 1.3 1.5 1.4.6.1 2.4.8 6.9 2.7 1 .4 1.7.8 2 .9 1 .4 1.9 1.7 2.2 2 .4.1 1.9.7 2.3 1 .5.4 1.9 2.4 2.2 3.2.3.8 1.2 1.3 1.3 1.4.1 0 .2.1.3.2.8.4 1.5.7 1.8 1.2.3.4 1.4 1.2 2.1 1.7.3.2.5.4.7.5.2.2 1.7.8 5.4 2.2l2.5.3.1.1c.4.2 2.3 1 2.9 1.6.3.3.6.7.9 1.1.3.4.5.7.7.9.2.2.9.6 1.6.9.6.3 1.3.6 1.8 1 0 0 3.5 2.2 4.3 4 .4.8 1.8 1.3 2.9 1.5l.4.1 1.5 2.3 1 2c.1.1.5 1.1.5 1.6 0 .3.3.8.5 1.2.1.2.2.4.3.5.2.4.3.9.3 1.3v.4l-.3.3c-.1.1-.4.4-1.2 2l-.2.3-.3.1c-1.1.5-3.6 1.6-4 1.7-.2.1-.5.3-.6.7-.1.2-.1.4.1.6.5.6.4 1.7-.2 2.4-.2.2-.5.5-1.8.5h-.4l-.8 1.3.9 1.1.9 1.4.3 2.4v6.8l-1.3 3.6v.1c-.7 2.4-2.1 6.7-2.4 8.1-.5 1.7-2.5 6-3.5 7.6-.7 1-2.2 2.1-3.7 3.2-.7.5-1.3.9-1.8 1.4-1 .8-2 4.3-2.6 7.3l-.5 2.9-1.4-3.8z"/><path id="isfahan" d="M485.8 650c-6.3-4.9-17.1-13.3-19.7-15.6-2.9-2.6-4.4-6.5-4.4-11.5 0-1-.2-3.3-.7-6.9v-.4l-.1-.1v-.3c-.5-3.3-1-7.1-1.5-10.6l-.1-.4c-.9-5.7-1.3-8.5-1.3-9.1 0-.5.2-2.2.6-4.9.6-4.9 1.6-12.3 1.1-13.6-.9-2.6.5-5.2 3.8-7.3 3.3-2.1 1.2-7.3.9-7.9l-.1-.1v-.1c-.2-2.3-.9-7-1.6-8.5-1-1.9-4.3-4.6-6.5-5.2-2.2-.6-4.1-2.9-4.8-5.8-.6-2.5-3.1-3.1-7.8-4.2-1.8-.4-3.2-1.5-3.9-3.2-1-2.2-.7-4.8.1-6.2 1.1-1.9.7-3.7-1.3-6.1-.9-1.1-1.6-2.7-2.3-4.3-.7-1.6-1.4-3.3-2.4-4.7-.8-1.2-1.7-1.4-2.3-1.4-.8 0-1.7.3-2.4.6-.6.2-1.2.4-1.7.5-.5.1-1.3.3-2.3.6-2.3.6-5.4 1.5-8.1 1.5h-1.5c-2.7 0-3.8 2.1-4.8 3.9l-.1.1c-.2.4-.5.9-.7 1.2-1.4 2.1-4.9 4.2-6.3 4.2-.2 0-.5 0-.7-.1-1.4-.7-5.8-4.5-7.7-6.4-1-1-2.4-1.6-3.8-1.6-1.3 0-2.6.5-3.9 1.3-.8.5-1.6.8-2.5.8-1.5 0-2.7-1-3.6-1.7-.2-.2-.4-.3-.6-.4-.6-.5-2.5-1.6-4.4-2.9-2.2-1.4-4.7-2.9-5.9-3.8-2.3-1.6-2.4-5.9-2.4-6.5-.1-.4-1-2.5-1-3.7 0-.7.1-2 .2-3.3.1-1.4.2-2.7.2-3.3 0-1.1.9-2.1 1.5-2.6l.3-.3h.4c1.3.1 5.6.3 8.3.3 3.2 0 4.2-.9 5.2-1.9.1-.2.2-.3.2-.5 0-1-1.8-2.6-4.2-4.8-1-.9-1.5-1.7-1.4-2.4.1-1 1.3-1.6 2.5-2.3.5-.3 1.1-.6 1.6-1 .5-.3.9-.6 1.3-.9 1.5-1 2.2-1.4 3-3.7.9-2.6-.5-6.1-.8-6.8l-.1-.2v-.3c.1-1.1 1.1-6.6 5.7-7.5 3.5-.7 6-2.4 8.5-4.1 1-.7 1.9-1.3 2.9-1.9 2.3-1.3 4.8-1.6 7.8-1.6h4.4c4.4 0 8.8-1.5 10.3-3.4 1.1-1.4 3.3-2.3 5.8-2.3 1.3 0 2.7.2 4 .7.8.3 1.6.4 2.6.4 3.7 0 7.4-2 8.1-3.8.4-1.1 1-3.7 1-9.9 0-.4.1-1 .3-2 .4-2.3 1.2-6.2-.2-7.3-1.8-1.4-5.2-4.7-6.6-6.8l-.7-1 1.1-.5c1-.5 2.6-1.2 4.2-2.2 1.7-1 1.7-2 1.5-4-.1-.7-.1-1.4-.1-2.3 0-2.7.3-4.8.4-5.6l.1-.5.5-.2c3.2-1.4 7.1-3.1 8.1-3.8 1.5-1 4.4-1.5 8.1-1.5 3.5 0 11.9-.5 12-.5.3-.1 10.5-2.5 12-2.5.8 0 4.3-1 8.6-2.4l.5-.2 7.6 5.1c1.9 1.3 6.3 2.2 10.5 2.2 2.2 0 4.2-.2 5.7-.7 3.2-1 6.7-1.5 9.3-1.5 1.5 0 2.6.2 3.3.5 1.3.6 5.2 2.1 8.6 3.4l.3.1c1.7.6 3.3 1.2 4.1 1.5 2.4 1 8.3 5 9 5.5l99.3-1.2 58.4-1 .7 50.8-.3.4c-.7 1-2.9 4.1-4.1 5.8-1.6 2.3-3.2 2.7-4.6 2.7h-6.1c-.5.8-3.7 5.5-5.5 6.2-1.2.5-5.7 3.7-9.3 6.4l-.2.1h-.2c-.4.1-3.9.9-6.4.9-.6 0-1.1 0-1.5-.1-.2 0-.3-.1-.5-.1-1.2 0-2.3 1-3.4 2-.7.7-1.5 1.4-2.4 2-.5.3-.9.6-1.3.8l-.2.1c-1.5 1-2.5 1.6-4.2 1.6h-17c-3.2 0-5.8 3.7-5.8 6.8 0 2.8-2.8 7.2-7.7 7.7-3 .3-4 .7-5.4 1.2-.6.2-1.4.5-2.5.8-.4.1-.9.2-1.3.4-3.4.9-5.5 1.6-5.5 3.9 0 3.2-3.1 6.3-6.3 6.3-1.4 0-5.2.1-9.2.2h-.9c-4.6.1-9.3.3-11.4.3-4 0-8.9 0-11.4 1.5-2.3 1.4-14.7 8.9-16.3 9.9.4 1 1.9 5.6 1.9 7.4 0 1-.1 6.6-.3 12v.8c-.1 5.2-.2 10.2-.2 11.1 0 1.8-1.1 12.6-1.5 15.9l11.1 13.1-7.2 8.3-.5-.1c-.5-.1-1.5-.2-2.7-.2-2.2 0-5.5.3-8.2 1.7-1.5.8-3.5 1.1-5.8 1.1-3.7 0-7.2-.9-7.8-1.1h-.1c-1.3-.1-9.7-.5-11.9-.5-2.4 0-7-.9-11.7-6.6-1.1-1.4-2.7-2.2-4.6-2.3h-.4c-4.4 0-9.1 3.3-10.6 4.8-1.9 1.9-5 8.6-6.4 11.9.1.9 1.5 9.6 2 12.9.5 3.5-3.4 13.4-5 16.2-.7 1.2-1.3 3.6-2 6.2s-1.3 5-2 6.3c-.8 1.3-1 4.7-.8 9.2l.1 2.2-1.7-1.3z"/><path id="kerman" d="M907.6 940.3c-2.3 0-5.9-2.1-8.6-3.6 0 0-.8-.5-1.1-.6-.4-.2-.8-.4-1.2-.7-3.5-1.9-6.2-3.6-6.9-5.3-.2-.6-.3-1.1-.4-1.6-.3-1.3-.5-2.5-2.8-4.6-2.4-2.1-3.6-2.5-4.9-2.5-.8 0-1.7.2-2.9.5-.5.1-1 .2-1.6.2-3.4 0-8.1-2.1-10-3.6-1.5-1.2-3.3-3.1-4.9-4.9-.8-.8-1.5-1.6-2.2-2.3-1.4-1.4-3.1-1.6-5.8-1.6H851c-4.2 0-4.7-.8-6.1-3.5-1.1-2.2-2.6-4.4-6.6-6.2-3.1-1.4-3.5-4.2-3.7-5.8-.1-.4-.1-.8-.2-1-.4-1.3-3-4-6.9-4.4-4.3-.4-6.1-5.1-6.1-6.5 0-.5-.2-2.3-.5-4.2-.4-2.6-.8-5.5-.8-6.7v-.5c0-2.1.1-4.4-3.6-5.1-1-.2-1.6-.6-1.8-1.3-.8-2.1 1.9-5.5 2-5.7.1-.1 2.9-3 4.2-4.6 1.2-1.5 5.6-3.4 6.6-3.8-.3-.9-1.2-4.3-1.2-6.1 0-1.9-1.5-2.3-2.7-2.3-.4 0-1.2-.1-2.2-.2h-.2c-2.4-.3-6.1-.6-9.7-.6-5.8 0-9.9-9.7-9.9-11.6 0-1.8-2-11.3-2.5-13.6l-16.4 1.2-1.2 4.9c-.5 1.8-3.9 3.1-5.3 3.1-.6 0-2.5.1-4.5.2l-.2-1 .1 1c-2 .1-3.9.2-4.6.2-3.9 0-6.8-.1-8.4-.4-2.1-.3-5.3-3-8.6-5.8-.4-.3-.8-.7-1.1-.9-2.7-2.3-4.8-6.3-5.5-8.1-.8-2.1-.1-14.6.4-16.5.3-1.2 1.6-13.1 2.5-21.1l-3.9.4c-.8.2-3.6.9-5.4 1.2-1.7.3-5.1 2.1-7.6 3.4l-.3.1c-.5.3-.9.5-1.3.7-1.1.6-2.9 1.5-4.8 2.5l-.6-.8.5.9c-2.3 1.2-4.6 2.4-6.4 3.3-1.6.8-2.9 1.2-4.2 1.2-1.9 0-3.5-.8-4.9-2.5-1.6-1.8-4.4-2.1-6-2.1H699.7l-.2-.8c-.8-3.7-1-6.2-.6-7.4.7-2 2.6-14.8-.4-19.1-1.5-2.2-6.7-8.6-11.7-14.7l-.3-.3c-4.4-5.4-8.6-10.6-9.4-11.8-1.5-2.3-3.4-5.5-3.7-6.2-1.2-.1-10.5-1.3-12.5-1.7-.2 0-.4-.1-.7-.1l-.6-.1-.2-.6c-.3-1.1-2.9-10.4-2.9-12 0-1.9-.9-23.1-1.3-25.1-.5-2.3-1.4-3.7-2.8-4-.8-.2-1.8-1.3-4.7-5.1-1.5-1.9-3.1-4.1-4.2-5-.9-.7-1.3-1.4-1.2-2.1.1-1.2 1.5-2.1 2.9-2.9 1.9-1.1 8.4-5.8 9.5-6.6l-.8-33.6.7-.2c1-.4 3.2-1.2 4.1-1.5 1.3-.4 5.5-1.7 8.9-2.1h.6c3.4 0 9.5 2.6 10.3 3 3.5-1 13.7-3.9 15.4-4.6 1.7-.7 11.8-4.6 15.6-6.1l1.5-.6c.1 0 6.8-2.1 11.4-3.8 4.8-1.7 16.7-8.4 17.5-12.4.4-2.1 1.4-3.3 2.2-4.4.8-1 1.6-1.9 1.6-3.6 0-3.5 5.1-5.3 7.8-5.3 2.2 0 4 1.8 4.7 2.5l3.1-1.6c2.5-1 5.4-2.5 6.3-3.3.9-.9 3.4-2 6.8-3.4.8-.3 1.5-.6 2.1-.9 2.3-1 2.4-3.6 2.4-6.2v-.7c0-1.6.4-5.3.8-8 0-.2.1-.4.1-.5v-1.8l.9-.1c4.5-.3 7.9-.7 8.8-1.2.3-.2.9-.4 2.4-.4 2.4 0 5.8.5 7.8 1.2l1.1.4c16.3 5.4 36.1 12 37.5 13.1.9.7 7.5 3 12.7 4.8 5.7 2 8.2 2.9 8.7 3.2.3.2 1.5.9 2.9 1.8 7.3 4.4 14.2 8.6 15.6 10 .4.4 1.5 1.5 3 2.9l.3.3c9.4 9.1 18.2 17.7 19.4 19.5 1.7 2.6 7.2 8.4 12 10 4.5 1.5 6.1 4.1 6.9 5.5.1.2.2.4.3.5.3.5.7 1.3 1.1 2.3.7 1.5 1.5 3.2 2.2 4 .5.5 2.3 3.1 6.3 8.7 4.8 6.9 8.5 12.1 9.2 12.7 1.2.8 6 5.9 6.5 6.5l.3.3v.5c-.1 1.4-.9 8.2-1.7 9.4-.7 1.2-1.2 11.3-1.2 15.4 0 .8.7 11 1.3 21.8.9 14.1 1.6 25 1.6 26 0 2 1.2 12.1 2.5 15 2.4 5.6 2.9 9 1.6 10.3-.7.7-1.6 1.9-2.1 3.1-.4 1.1-.4 1.9 0 2.4 1.3 1.3 2.5 9.8 2.6 10.1v.2c-.2 8.4.1 18.3 1.2 19.9.7 1 .8 1.8.5 2.5-.6 1.1-2.4 1.2-3.2 1.2-2 0-17.9-1.2-19.2-1.3-.6.4-3.2 2.2-5.8 3.3-.6.3-1.4.7-1.6 1.4-.1.6.3 1.1.3 1.1l4.3 5.2V820c0 2.7-2.7 3.2-7 3.2-4.2 0-5.7 5.8-6.3 7.9v.2c-.1.2-.1.4-.2.5-.3 1-.8 12.5-1.2 23.4l-3.4 30.7c-.2 1.1-.8 5.3-.8 6.7 0 1 1.2 3.3 2.3 5.3.7 1.3 1.2 2.3 1.5 3 .9 2.2 1.7 4.7.4 7.3-1.3 2.6-1.6 3.3-1.2 4.9.4 1.6 3.2 5.7 6.1 6.1 3.2.5 3.2 6 3.2 7.8 0 1.4.6 7.2.8 8.9l.1 1-1 .1c-1.4.2-3.2.3-4.3.3-.7 0-1.5.5-2.4 1.2-1 .7-2.1 1.5-3.5 1.7.1.1-.1.1-.3.1z"/><path id="kermanshah" d="M134.1 447.8l-.5-1.2-.5-1.3-.3-1.4-.3-.9-.6-.6-.9-.8-.9-.9-5.1-9-1.4.2-1.9-.1-1.8-1-2.1-2.8 2.4-1.1.5-.3.3-.3.8-1.6.4-1.8.8-1.8 1.6-1.3.9-.9 2.3-1.9.3-.4v-.2l-.7-1-.4-1.2.2-1.1.9-1.5.2-.4.8-3.1.1-1.6-.2-1.2-.7-1-.8-.4h-.7l-1.5 1.1-1.9-1.4-.8-1.8-2-6.2 1.1-1.6 3.2-.6.2-.1.2-.4.3-.4.1-.2.1-1.8-.5-2.8.5-3.2 3.5.9 2 1 1.6.4 4 .3.8.2.1-.7-.8-1-.3-1.5v-1.3l-.2-1.1-.1-.2-.2-.2-.5-.6-.2-.9-.1-.3-.2-.3-.4-.3-.6-.3-1.4-1.6.7-1.9 1.7-1.8.1-.4-.2-1.4.3-1.2.9-1.2 1.1-.5 1.6-.2 1.1-.7.2-1.1-.1-1.9.7-2.1 2.3-.2 2 1 .8.3.3-.4.5-1.5.5-1.2.1-1-.5-1.7v-.1l-.2-.9v-1.2l.4-1.2.9-.9.7-.2h.4v-1l1.2-1.9 1-.3 1.3.3 1.3.9.3.1.7-.1 1.8.7.3-.1.7-.7 1.9-1.1h1l.8.2 1.3-.4.7-.1.1-.1-1.2-1.2 1.1-2.7 1.2-2 .1-1-1.8-1.4 2.2-.4c.5-.1 3.1-.6 5.3-1.5.7-.3 1.2-.4 1.8-.4.4 0 .8.1 1.2.3 1 .5 1.7 1.5 2.3 3.3.4 1.3 1.9 2.4 3.2 3.4 1.7 1.3 3.3 2.5 3.3 4.2 0 1.9.2 8.2 3.4 10.3 1.3.9 3.1 1.4 4.7 1.8 2 .6 3.8 1.1 4.4 2.3.9 1.7 2.5 4.6 2.9 5.4 1.2 0 9.1 0 11.9.5.1 0 2.3.4 4.6.4 3.2 0 4.2-.7 4.5-1 .2-.3.3-.6.1-1-.2-.5-.4-1.1-.6-1.6-1-2.6-2-5.3.2-6.7 1.7-1 3.4-2.5 4.3-3.3l.7-.6.7.7c.3.3 1.1.8 3 .8 1.6 0 5.3-.4 5.3-3.8 0-2.8 1.1-5.8 3.3-5.8h14c3.3 0 9.7.9 10.2 3.2.2.7.2 1.5.2 2.3 0 1.8.1 3 1.2 3.6 1.3.6 2 1 2.1 1.8.1.7-.4 1.5-1.5 2.6-2.3 2.3-3.5 6.2-2.5 8.2.4.8.6 2.2.7 3.7.3 2.2.5 4.6 1.6 5.2 2.1 1 3.6 1.5 6.4 2 2.4.4 4.8 1.4 5.7 1.8l.5.2.1.6c.1 1.4.5 4.9.5 6.1 0 1.6-3.7 5.3-4.1 5.7l-3.9 4.4s-.5.6-1 1.3l-.3.5h-7l-1.5-.9-1.6.4-3.3-2c-.5 1.6-1.2 3.9-1.3 4.5-.1.8-1.1 5-2.5 6-.5.4-1.3 1.3-2.1 2.2-1.2 1.4-2 2.4-2.7 2.8-.9.6-2.7 2.6-3.5 3.6v2.2c.6 1.9.9 2.3.9 2.3.4.4 1.5 1.6 1.8 2 .2.3.9 1.5 1.3 2.4l1.1 2-2.2-.6c-2.6-.7-7.2-2.1-8.7-2.8-.2-.1-.4-.2-.6-.2-.1 0-.3 0-.3.1-.5.5-.1 2.1.3 2.7.7 1.1 1 3.5 1 5.5 0 2.2-3.1 4.6-5.9 4.6-2.7 0-8.6-2-11.4-3-.7-.2-1.3-.4-1.8-.4-.4 0-.8.1-1.1.3-.4.2-.9.7-1.1 1.9-.1.5-.4.9-1 1.3-1.6 1-4.4 1.4-6.3 1.4-.8 0-1.5-.1-2-.2-.7-.2-1.8-.3-2.9-.4-2.4-.2-5.4-.4-6.9-2-1.1-1.3-4.6-4.2-7.6-6.7-2.4-2-4.7-3.9-5.7-4.9-1.2-1.2-2.7-1.8-4.5-1.8-1.3 0-2.5.3-2.9.5-.3.1-.6.1-1 .1-2.3 0-6.2-1.9-8.6-4.9-.9-1.1-1.4-1.3-1.6-1.3-.5.1-.7 1-.9 1.8-.1.4-.2.8-.4 1.2-.7 1.8-2.7 2.9-5.2 2.9-.3 0-.7 0-1-.1-.9-.1-1.6-.1-2.2-.1-1 0-1.5.2-1.9.5-.3.2-.6.7-.6 2.1 0 2 1 3 2 4 .5.5.9 1 1.3 1.5.2.4.4 1 .1 1.8-.5 1.4-2 2.7-3.3 3.2-.8.3-1.5 1.3-2.3 2.3-.7 1-1.6 2.2-2.9 3.3-2.5 2.1-7.4 4.6-8.3 5l-.1.4-.5.2c-.1 0-.3.1-.4.1l-.6.1-1-1.1z"/><path id="khorasan-north" d="M856.5 250.1c-3.1 0-7.2-1.5-8.7-4.1-.8-1.3-3.6-2.1-6.3-2.8-2.2-.6-4.5-1.2-5.6-2.1-.6-.5-1.2-1-1.8-1.6l-.1-.1c-2-1.9-4.5-4.3-7.5-4.3-2.6 0-6.7-1.1-10.6-2.1-2.2-.6-4.2-1.1-5.9-1.4-4.5-.9-8.3-3-9-3.5-1.7.8-11.9 5.7-17.4 7.9-5.6 2.3-8 7.2-8.3 7.8l-.1.8h-.9c-.5 0-1.1-.1-1.7-.1-4.5-.5-7.9-3.8-8.5-4.4l-.2-.2-.1-.2c-.2-.7-1.2-4-2.9-5.7-1.8-1.9-3.7-5.8-4-6.5v-.1l-.9-3.2c-4 1.7-8.7 3.8-9.7 4.8-.9.9-2.2 1.5-3.1 1.5-.3 0-.5 0-.7-.1-.5-.2-1.1-.7-1.1-2.1v-1.5c-.1-2.8-.2-6 1.6-8.1 1.7-2.1 2.4-4.4 2.4-7.3 0-2.9-.6-5.8-1.8-5.8h-4.7l-.5-9.5h4.5c0-1.6.2-10.1 2.6-12.4 2.4-2.4 8.4-10.2 8.9-10.9l1-8.5 6-5v-7.8l-1.5-7.4-1.3-.2.7-1.3.1-1-.1-.7-1.8-1.9.6-1.8 4-3.3 2.1-1.4 2.4-.9 5.7-.1 1.2.2 1 .5.8.6.4.2.6-.1 4.7-1.9 3.1-.6.9.2 2.4 1.8 1.9 1 .7.2 8.8 1.5 2.4.9.7.1.6-.4.8-.6 1.9-1.2.5-.5 1.2-1.9.9-.9 1.4-.7h1.7l1.6.5 1 .7.4 1v.5l.1.3 1.4 2.1 1 2.4.6.8 2 2 .7 2.2 1.3 1.6.4 1.6-.2 1.5-1 3.2.9 1.3 8 2.9.6-.1.9-.3 1.2-.1 1.2.1 2.9.8 2.6-.1.9-.2h1.3l1.1.7.7.6.5.3h.1l1-.2 1 .2.7.7.5 1 .2.2.4.2.7-.1.9-.2 1.2-.1 2.4.6 9.2 4.2 3.6.8 2 .2 1 .2 1.3.5.9.9v1.1l-.2.4v.1l.9 1.5.3.7.2 1.5v.8l.1.4.7.5.7.3 4.6.6v18.1c0 .6-.5 9.1-.5 11 0 2.2-3.4 4.4-6.6 6.2-1.1.6-1.6 1.5-1.6 2.6-.1 1.9 1.4 3.9 2.2 4.5.5.3 1.2.6 1.9.9 1.4.6 2.8 1.1 3.2 2.2.5 1.4-.3 3.9-.4 4.4l-.1.3-.2.2c-.8.6-3.6 2.7-7.9 4.4-4.8 1.9-3.9 7.1-3.9 7.1v.2c.1 2 .7 8.3 2 10.4.4.6.2 1.2 0 1.5-1.4 2-7 2.9-9 2.9z"/><path id="khorasan-razavi" d="M983.8 429.8c-.7 0-1.3-.1-2-.4-2.1-.9-2.3-3.9-2.5-5.8-.1-.6-.1-1.1-.2-1.3-.3-1-3.9-3.1-6.7-3.5-2.7-.3-17.8-.4-19.5-.4h-.6l-.3-.5c-.7-1.2-2.5-4.1-4.8-6.1-1.6-1.4-2.1-1.6-2.7-1.6-.2 0-.4 0-.7.1-.4.1-1 .2-1.8.2-1.5 0-7 .2-11.9.4-5.3.2-9.5.3-10.7.3-1 0-3.2.1-5.8.3-3.8.2-8.4.5-11.7.5-3.8 0-5 2.6-5.4 3.8l-.4 1.4-1.2-1c-3.5-2.9-7.8-6.5-8.9-7.6-1.5-1.5-5.9-7.7-7-10.6-.2-.5-.5-.9-1-1.1-.3-.1-.6-.2-1-.2-1.5 0-3.1.8-3.4 1-.3.5-2.1 3.4-6.4 3.4h-.7c-5.1-.4-5.9-.7-7.8-3.4-1.1-1.6-6.9-3.1-12.1-3.8l-.6-.1-.2-.6c-.2-.7-.9-2.6-2-4.2l-.8-1.2c-1.9-2.9-6.4-9.7-8.3-11.9-2.2-2.5.7-6 2.2-7.9l.3-.4c.9-1.1 3.1-2.2 6-3.5 1.4-.6 2.6-1.2 3.1-1.6.2-.2.3-.4.4-.7.1-1.3-1.4-3.5-2.9-5.1-1.7-1.7-5.3-4.3-7.6-5.4-.6-.3-1.3-.6-2.1-.8-1.9-.7-3.9-1.4-5.3-3.3-.4-.6-1.9-1.5-7.5-1.5-3.1 0-6.7.3-9.1.5h-.3c-2.9.3-8.3 3-11.8 4.9-1.3.7-2.2 1.1-2.6 1.3-1.6.7-5.3 4.6-5.7 6.4-.4 2-6.8 7.9-9.2 9.6-1.9 1.4-5.8 4.2-11.1 4.2-.6 0-1.2 0-1.8-.1-4.2-.5-9.1-.7-11.7-.7h-2l1.9-2.4c2.4-3 5-6.3 6.2-7.5 2.4-2.4 4.8-7.1 5-7.6 1.7-3.4 5-5.3 9.7-5.6 5.9-.3 8.8-5 9.8-6.5l.2-.3c.7-1.1 3.6-2.7 7.5-2.7 2.6 0 7-.7 7-3.4 0-.7-.2-1.9-.5-3.2-.6-3.2-1.4-7.6.1-10 2.1-3.1 0-7.7-1.8-9.9-1.3-1.5-9.5-8.7-16.1-14.3l-.3-.3-.4-10 5.2-13-7.6-10.1 9.1-7.1c0-2.8-.2-6.3-.5-7.3-.2-.6-1-1.3-1.9-1.9-1.3-1-2.1-1.8-2.1-2.6v-.8c0-1.1.1-2.5-.5-3.1-.2-.2-.5-.3-.8-.3-.9 0-1.1.2-1.4.6-.5.5-1 1-2.5 1.4l-.6.2c-1.8.6-3 1-5.1 1h-1.7l.8-1.5c.7-1.3 3.3-5.6 8.4-7.7 5.3-2.2 15.2-6.9 17.1-7.8l.5-.2.5.3c1 .6 4.4 2.4 8.6 3.3 1.7.3 3.7.9 5.8 1.4 4 1 8 2.1 10.6 2.1 3.2 0 5.6 2.3 7.8 4.4.7.6 1.3 1.2 1.8 1.7 1.1.9 3.2 1.4 5.4 2 3.5.9 5.8 1.7 6.6 3 1.5 2.4 5.4 3.9 8.3 3.9 2.4 0 7.4-1 8.3-2.6.2-.3.2-.7 0-1-1.5-2.5-2-10.4-2-10.7-.3-2 .1-6.1 4.2-7.7 4.6-1.8 7.4-4.1 7.9-4.4.3-1 .8-3.2.5-4.3-.3-.9-1.6-1.4-2.9-1.9-.8-.3-1.5-.6-2-1-1-.7-2.5-2.9-2.4-4.9 0-1.3.7-2.3 1.9-3 3.3-1.9 6.4-3.9 6.4-5.8 0-1.7.4-9.8.5-11v-18.8l2.9 2.1.4.1 4.9-.5.6-.3.6-.8.6-1.2.8-1.2 1.3-.8 1.6-.1 1.4.7 2.9 2.5 2.2.8 1.2.2 1-.1.2-.1.4-.4.7-.5h1l1.2.2.4-.1.3-.1.4-.5.1-.9.9-1.5 4.3 2.3 4.5.9 2.5 1.1.7.5.6.2 1.7.3 1 .4 2 2 7.5 5 .7.1 3.4-1.5 2 .6 1.3 1.2 1.4 1.7.3 1.3-.1 1.4.2.6.3 1-.5 1-.3.6-.1.5.1 1.2 1.1 4.4.5.7 3.5 2.8 1.2 1.2.8 1-.3 1-.2.2-.1.4.5.1.6.6.3.2.2.1 2-.7 1.4.2 1.4 1.4.5 1.4.3 1.4.3.8.1.1.1-.1.8-1.1 1-.6 1 .2 8.7 2.7 3.9 3.1 1.9 1.1 4.8.8 2.4 1 2 2.5 2.2 4.4 2.6 3.9 6.2 7.1 1.3 2 1.7 4.2 1 1.7 1.5.8 42.7-.8 3 .5 3.1.4.5 3 .4.9.4.9v2.1l-.4 1-.6 1.2-.2.4.1.5.3 1.3-1.3 5.7-.3 3 1 2.3-.3.4.4.2.8 1.1.3 1 .1.8v1.5l.1.4.9 1.3 1 4.6.1 2 .1.4-.2 1-.7.8-.2.3-.1.4-.1.5v.7l-.3 1.3-.9.6-.5.2v.3l.2 1.4-.2 1-1 1.1-.7.5.7.1 1.5.7 1.2 1 .9 1.2.8 1.1.6 1.3.3 1.3.3 2.6.2 1 .1 1.4-.3 1.2.3.4v1.2l-.5 2 .1 1.3-.4.9-.8.8.1 1.3.7 1.4 1.4 2 .6.8.7 3.1.1 1.6-.4 1.7-.9 1.5-1.4 1.5-.5 1.2-.5 2.2-.5.9-1.2 1.5-.2.6-.3 1.2.3 3.7-.7 1.8-1.5.8-1.6.4h-1l-.3.2-.2 1-.1 1.3v.3l.2.2.5 1-.2 1.5-.5.3 2 2.6.2.7-.1 1-.1.5v.1l1 1-1.9 2.5-.4.8-.3 2.8-.9 2.6-.1 1.3-.3 1-.9 1.2-.1.5v.5l.3 1.3v.7l-.2 2.7-.6 2.8-1.8.6-.2.8-1.4 2.3-1.9 1.5-.8.9-.1 1.2.2 1.8-.2 2.1-1 1.3-1.2.2h-.8l-.6.1-.4.2-.5.8-2.8 3.1-1.3 1-1.7.5-3.1.4-1.1.5v.1l.3.2.6.8.5 1.5.2.2 1.3.7 1 .8.6 1 .9 1.8 4.4 5.5 1.5 2.8-14.8.8.2.8-1.4 1.5-2.8 1.4-1.9 2-1.8 2.2-1.5 3-.4 2.8.2 2.2-1.7-1.2h-10.1c-.9 0-3.4 3.1-4.9 5.7-.5 1.7-2 2.8-3.8 2.8z"/><path id="khorasan-south" d="M943.3 661.7c-3.2-3.4-5.6-5.8-6.3-6.3-.8-.6-3.6-4.6-9.4-12.8-2.8-4-5.7-8.1-6.2-8.6-.8-.8-1.6-2.5-2.3-4.1-.4-.8-.8-1.8-1.1-2.3-.1-.1-.2-.3-.3-.5-.9-1.4-2.3-3.8-6.7-5.3-5-1.7-10.5-7.4-12.3-10.2-1.3-1.9-13.4-13.6-19.1-19.2l-.2-.2c-1.6-1.6-2.9-2.8-3.3-3.2-1.6-1.6-10.6-7-15.5-9.9-1.5-.9-2.6-1.6-2.9-1.8-.5-.3-4.4-1.7-8.6-3.1-8-2.8-12-4.2-12.8-4.8-.7-.5-6.4-2.8-37.4-13l-1.1-.4c-1.4-.5-5-1.2-7.6-1.2-1.4 0-2 .2-2.3.3-1.4.7-7.2 1.1-8.9 1.2l-1.1.1v-1.1c0-1.9.1-4.5.4-5.9.3-2.1 1.6-3.4 2-3.8-.9-1.5-6.6-11.5-10.3-14.5-3.1-2.6-8.3-11.3-11-16-.8-1.4-1.4-2.5-1.8-2.9-1.3-2-6.8-7.2-9.6-7.5-2.6-.3-13.6-3.4-16.9-4.3l-.4-.1-.2-.3c-.8-1.2-7.9-11.9-8.2-14.1-.3-1.7-2.8-6.8-4-9l-11.2-16.1.6-.6c.3-.4.6-.7.8-1 1.3-2 3.9-5.6 4.3-6.1l-.7-50.6 26.3-.5c1.2-2.2 14.2-26.1 15.6-27.6.5-.5 1.6-1.8 2.5-3l.3-.4h.5c1.2 0 7.7.1 12.9.7.6.1 1.2.1 1.8.1 5 0 8.8-2.6 10.7-4.1 2.6-1.9 8.6-7.6 9-9.3.4-1.9 4-5.9 6-6.7.5-.2 1.4-.7 2.6-1.3 3.6-1.9 9-4.6 12-4.9h.3c3.7-.3 6.9-.5 9.3-.5 5.7 0 7.1.9 7.7 1.7 1.2 1.7 3.2 2.4 5 3.1.8.3 1.5.5 2.2.9 2.1 1 5.8 3.6 7.7 5.5 1.6 1.6 3.2 3.9 3.1 5.5 0 .5-.2.8-.6 1.1-.6.4-1.8 1-3.2 1.6-2.3 1-5 2.3-5.9 3.4l-.3.4c-2 2.5-4 5.2-2.2 7.3 1.9 2.2 6.4 9 8.3 11.9l.8 1.2c1.2 1.9 2 4 2.2 4.6 1.4.2 11 1.6 12.7 4.1 1.7 2.4 2.4 2.8 7.5 3.2h.7c3.8 0 5.4-2.3 5.9-3l.2-.2.3-.1c.5-.2 2-1 3.5-1 .4 0 .8.1 1.1.2.6.2 1.1.7 1.3 1.4 1.1 2.8 5.4 9 6.9 10.5 1.3 1.3 7.7 6.6 9.4 8.1.3-1.9 1.8-4.9 6-4.9 3.2 0 7.9-.3 11.7-.5 2.6-.1 4.8-.3 5.8-.3 1.3 0 6.2-.2 10.6-.3h.1c5.1-.2 10.3-.4 11.8-.4.8 0 1.3-.1 1.8-.1.3 0 .6-.1.8-.1 1 0 1.7.6 3.1 1.7 2.6 2.3 4.7 5.7 5.1 6.5 1.8 0 17.1 0 19.9.4 2.9.4 6.7 2.6 7.1 3.8.1.3.1.7.2 1.4.2 1.7.4 4.6 2.2 5.4.6.3 1.2.4 1.8.4 2 0 3.3-1.5 4-2.8 1.3-2.3 3.9-5.7 5.1-5.9H1003.2l1.4-1.3.9 7.5 1.6 10.7-.1 3-1.8 4.1-.4 1.9 1.3 4.5 3.4 3.2 4.4 1.8 4.4.4 4.3-.3 2.5.2 2.1.6 1.1.6 1.2 1.1.8 1.6-.9 1.7-1.3.5-2.7.2-.4.2v.3l.2 1.1.1 1.4-.4 1.7-.8 1.1-2.1 1.3-1.6 1.4-10.9 14.7-.2.6.1 5.2.8 4.3 10.3 34.4 4.5 17.2-.1 5.8-.8 5.6-.4 1.5-1.6 1.9-.1.4.2.1.7 1-.6 1.8v.3l.6 1.4.1 1.8-.5 4.3.2 3.3.8 6.4-.8 5.2.2 1.4.8 3.3.6 6 1.3.5 1.3.2-.6 1.3c-.7 1.3-4.4 8.1-6.3 10.1-2.3 2.3-6.1 3.8-8.1 3.8-1.1 0-5.1 1.1-9.2 2.4-3 .9-6.4 1.9-8.3 2.3-.9.2-1.5.6-2 1.4-1.3 2.1-.8 6.3.1 9.2 1 3.4-3.8 6.6-4.3 7-1.4.9-7.8 1.7-11.9 1.7-1.4 0-2.3.3-2.9.8-.7.7-.7 1.7-.6 2.7v.4c0 1.3-.5 5.3-.8 7.6l-.1.6-28 11.4-.6-.8z"/><path id="khuzestan" d="M304.3 706.3h-.6l-.1.1-2.5-.8-1.8-1.3-.5-.5-.4-.7-.6-1.5-.1-.9-.9-3-.1-.1-.4-.9-1.2-1.3-.8-1.9-.2-.8.2-1.3.7-.8.6-.6.3-.3v-.3l-.1-.5-.2-.4-.3-.4-2.2-2.2-2-2.3-1.2-1.9-.3-.3-.4-.1h-.5l-2.2.3h-.8l-.8-.1-1-.4-.8-.8-.3-.9-.5-3.1-.4-1.3-.7-1.1-.9-.9-.4-.3-.4-.1-6.9-1-.1-2.9.2-33.2-.1-.4h-20l.4-29.7 9-24.7.3-1.2-.1-1.1-.6-.9-2.2-1.7-1.2-1.2-.3-.8-.3-1.2-.2-.4-.2-.2-1.2-.8-.5-.8-2.5-4.4 2.5 1.1c.3-1.3 1.4-6.2 2.8-7.3.5-.4 1.2-.9 1.8-1.4 1.4-1 3-2.1 3.6-3.1 1-1.5 3-5.8 3.5-7.4.4-1.5 1.9-6.2 2.3-7.7l.1-.5 1.3-3.5v-6.6l-.2-2.2-.8-1.3-1.1-1.4 1.1-1.8h.7c.6 0 1.1-.1 1.3-.4.4-.5.5-1.4.2-1.7l-.2-.2-.1-.2c-.1-.6.3-1.4.9-1.7h.1c.3-.1 2-.8 4.1-1.8.2-.4 1-1.9 1.3-2.2l.1-.1.1-.1c.2-.1.1-.9-.2-1.4-.1-.1-.2-.3-.3-.5-.4-.7-.5-.9-.6-1.2v-.2c0-.1-.1-.6-.5-1.4l-1-2-1.6-2.4.6-.6c1-.9 3.6-3.3 5.1-5.4 1.8-2.3 6.2-3.2 9.6-3.2.6 0 1.1 0 1.7.1 1.5.2 4.4.3 7.5.3 3.1 0 5.7-.1 6.8-.2.5-.1 1.1-.1 1.5-.1 2.1 0 3.9.7 5.7 2.2 2.1 1.8 9.2 2.3 11.5 2.3 1.8 0 5.5 1 8.1 2 2.6 1 6.2 1 7.9 1h2.3c2.9 0 4.7.3 5.8 1.1 2.2 1.4 3.4 2.8 4.4 4.8l.3.5c1.3 2.5 4.6 9.3 7 11.1 1.6 1.2 4.5 3.8 6.8 5.9 1.3 1.2 2.8 2.5 3.5 3.1.8.7 2.7 2.6 4.7 4.6 1.9 1.9 4.1 4.1 5.3 5.1 2 1.7 1.7 3.1 1.3 4.4-.1.3-.2.6-.2.8-.3 1.6 1.6 6.8 3.3 8.8 1.7 2 7.3 8 9.3 9.3 1.7 1.2 7.1 6 8.7 7.4l.4.4-.1.5c-.8 4.7-.6 7.5 0 8 1.4 1.4 3.7 3.7 5 4.6 1.1.8 2.3 2.8 2.8 3.6l.4.6-.4.5c-5.1 6.2-7.5 9.7-7.6 10.5 0 .2-.1.5-.1.8-1 5.7-2 8.5-3.3 9.4-1.7 1.1-2.8 2.3-3.6 3.9-.4.7-1.5 1.5-6.9 1.5-.5 0-1.2 0-1.9-.1-1 0-1.9-.1-2.5-.1-.7 0-1.3 0-1.5.1-.4.1-.7.9-.7 1.8 0 1.1.6 1.8 1.7 2.1 2.7.7 3.3 3.3 2.8 5-.1.3-.1.8-.1 1.3-.1 1.8-.2 4.5-2.3 6.1-1.4 1-2.8 2.3-3 3.5-.1.6.1 1.2.7 1.8 1.7 2 3 4 4 6 .7 1.4 2.5 2.2 5.1 2.2h.6c.7 0 .7 0 1.7-2l.4-.8c1.1-2.2 2.4-2.9 3.3-3h.4c.6 0 1.2.2 1.7.7 1.1 1.1 1.4 3.8 1.1 4.9-.2.5-.4 2.6.5 4.1.5.9 1.3 1.4 2.4 1.6.7.1 1.4.2 1.9.3 2.1.3 3 .5 3.6 2.2.8 2.5 1.9 3.9 3.1 4.2 1.1.2 2.7 2 2.9 3.6.1 1.1-.4 2-1.5 2.5-2.9 1.3-4.2 1.9-4.2 3.4 0 1.6 1.3 4.2 4.2 6.1 2.1 1.4 3.1 3.6 3.1 6.5 0 1 .3 10.9.3 11.3l.1 1.9-6.1-2.3h-.1c-.4-.2-2.5-1.2-4.7-3-1-.9-2-1.6-2.8-2.3l-.1-.1c-1.1-.9-2-1.6-2.8-2.3-.1-.1-.2-.2-.3-.2h-.1c-.8.3-1.8 3.2-2.1 5.7-.3 2-1.8 3-3.1 3.2l-1.1.5-.3-1.1v-.2l-.2-.4-.6-.4-1.8-.7-1.8-.3-2 .4-1.9.6-18.3 12.3-2.5 1.1-2.6-.5-1.9-3-.3-1.4v-3.1l-.4-.9-.4-.6-.1-.2-.1-.1-.5-.3-.4-.2-.3-.1-1.1-.1-.5.1-1.2.3-1 .1-1-.3-.9-.6-.1-.1-.8.1-2.2 1-1.4.2-2-.1-1.2-1.2.1-2.8-.8-.5-.4-.8v-.2l-.7.7-1.7.3-1.7-1.1-.6-1-.3-.3-.7-.1-1.6-.6-4-2.4-1.1-1-.4-2.4-.8-1-1.2-.6-2.7-.7-.4.4-.1.2-.4.7-.1.2.8.7-.8 1.3-.3.4.3.9.8.8 1.2 1 1.1 1.2.6 1.5.4 1.6.3 3.3-.1 1.1-.5 1.5-.1.5.1.5.3 1.4v.9l-.4 1.7-1 1.5-1.4 1.1-1.6.4-3.8-.4-1.3.5-1.3-.6h-4.1l-2.2-1.2.1.2.9 1.4.1 1.3-.2 1.1-.7.9-1.2 1-1.7.5-4.5-.4zm36.7-30.7l1.3.5.8.7.8-1.6 1.7-2.2.1-.2h-.2l-1.4-1-.7-1.4-.2-1.1-.2.3-2.8 2.2.3-2.9-1.3.3-.9-.7-.5-.7-.4.3h-.7l-1.3-.2-.9-.3h-.6l-1.1.5-2-.3-1.1.7-.1.2.7.3 1.9.4 2 1.2.7 2.2-.4.5.8-.2 1.5.4 2.5 1.3.6.2 1.1.6z"/><path id="kohgiluye-boyerahmad" d="M426.1 709.9c-.1-.1-.2-.1-.3-.2-.4-.1-3.1-1.1-4-2-.6-.6-.9-1.5-1.3-2.7-.4-1.1-.9-2.5-1.7-4-1.7-3-2-10.1-2-10.4 0-.1-.3-10.3-.3-11.4 0-2.8-.9-4.8-2.9-6.1-3.1-2-4.4-4.8-4.4-6.5 0-1.8 1.5-2.5 4.5-3.9.6-.3 1.3-.8 1.2-2-.2-1.4-1.5-3-2.5-3.2-1.5-.3-2.6-1.8-3.5-4.5-.5-1.4-1-1.5-3.2-1.9-.6-.1-1.2-.2-1.9-.3-1.2-.2-2.1-.8-2.7-1.8-1-1.6-.7-3.8-.5-4.5.3-.9 0-3.5-.9-4.4-.3-.3-.8-.5-1.3-.5h-.3c-.6.1-1.9.6-2.9 2.8l-.4.8c-.8 1.5-1 1.9-1.3 2.2h-.2c-.2.1-.4.1-.7.1h-.7c-2.8 0-4.7-.9-5.5-2.5-1-2-2.3-4-4-6-.6-.7-.9-1.5-.8-2.2.2-1.4 1.7-2.7 3.2-3.8 1.9-1.4 2-3.9 2.1-5.7 0-.7.1-1.1.1-1.4.2-.8.1-1.8-.2-2.6-.4-.9-1.2-1.5-2.2-1.8-1.1-.3-1.9-1.1-2-2.2-.2-1 .2-2.1.8-2.5l.1-.1h.1c.3-.1.8-.2 1.7-.2.8 0 1.7 0 2.4.1h.2c.7 0 1.3.1 1.8.1 1.4 0 5.8 0 6.4-1.2.6-1.1 1.5-2.6 3.8-4.1 1.6-1.1 2.6-6.5 3-8.7l.3-1.5 1.3.8c2.7 1.7 4.5 2.9 5.4 3.4.5.3 1 .4 1.6.4 1.2 0 2.6-.7 3.9-1.4 1.7-1 4.3-2.1 6.4-2.1.7 0 1.3.1 1.8.4l.4.2c1.5.7 1.6.9 3.2 3.2l.5.7c2.3 3.3 4.6 4.9 7.1 4.9.7 0 1.3-.1 1.8-.3.5-.1.9-.2 1.4-.2 1.6 0 2.3 1.2 3 2.9 1.6 4.1 3.4 7.9 5.8 7.9.2 0 .4 0 .6-.1 2-.4 3-1.8 4-2.9.4-.5.8-1 1.3-1.4 1.1-.8 2.7-1.2 3.3-1.3h.2l5.8 1 .1.7c.5 3.6.7 5.8.7 6.8 0 4.8 1.5 8.6 4.2 11.2 3 2.7 17.8 14.2 20.8 16.5l.3.2 1.2 6.6v7.5c0 2.1-2.1 4.7-4.7 5.7-.6.2-1.1.3-1.7.3-1.8 0-3.7-1.1-5.1-2.9-.6-.8-1.7-1.2-3.5-1.2-.8 0-1.6.1-2.4.1-.8.1-1.6.1-2.4.1-3 0-7.2-3.6-8.7-6.6-1.3-2.7-2.8-4.4-5.8-4.4-.5 0-.9.2-1.1.5-.8 1.1.2 3.9.7 5.3l.4 1.2c.8 2.5 2.9 9 4.2 11.1 1.5 2.5-2.9 9.3-3.4 10.1l-.2.2-.3.1c-.7.3-6.5 2.9-8.9 2.9-1.6 0-3.1 3-3.8 5.9-.4 2.3-1 6.9-1 8.9 0 .5-.2 1.3-1 2.1-1.3 1.1-3.6 1.8-6.4 1.8-.6 0-1.3 0-1.9-.1h-.7c-1.1 0-2 .3-2.6.9-.7.7-.9 1.6-.9 2.2l-.1 1.8-1.9-.9z"/><path id="kurdistan" d="M214 371.5c-1.5 0-3.1-.1-4.6-.4-2.1-.3-7.3-.5-11.5-.5h-.6l-.3-.5c-.7-1.3-2-3.6-2.8-5.1-.5-1-2.2-1.5-4.1-2-1.7-.5-3.4-1-4.8-1.9-3.3-2.2-3.6-8.2-3.6-10.7 0-1.5-1.5-2.6-3.1-3.8-1.4-1.1-2.9-2.2-3.4-3.6-.5-1.6-1.2-2.6-2.1-3-.3-.1-.6-.2-1-.2-.5 0-1 .1-1.6.4-2 .8-4.3 1.3-5.2 1.5l.8 1.3-1.8-.1h-2l-1.4-.9-.3-1.9.7-1.3.7-.8.3-.6-.3-1.3-1.2-1.4-3.3-2.9-3.8-6-.9-2.3v-.9l.2-.9.5-.7.4-.3-.8-1.4-.9-2.4 1.4-.5h.6l.7.2-.4-2.2V313l.2-1.4.5-1.4 1.1-1.1 1.6-.5 4.1.1 1-.2 3.1-1.6 2.5.2.8-.1.6-.6.9-1.2 1.8-1.2.8-.6.4-.9.1-.5-.2-.4-.6-.4-.7-.1-.7.3-1 .7-1.3.5-2.6.5-1.5.1-1.6-.6-.7-.6-.4-.5-.4-.7-.2-1.1h-.1l-1.8-.6-.5-.1-.7.3-1.1.6-1.5.5-3.7-.2-1.9.6h-.9l-.6-.2h-.3l-1.2.9-1.5.8h-1.7l-1-.6h-.3l-2.3.6-1.6-.5-1-1.3-1.5-3.5-2.7-3.5-1.4-1.3-1.5-.3-.9-.6-.7-.6-2.6-2.2 3 .4c.1-1.4.5-5.5.5-6.7 0-1.7 1.6-4.8 4.3-4.8 2.3 0 2.8-.3 2.8-3.3 0-3.5 1.9-5.8 4.8-5.8s9 0 10.4-.5c1.1-.4 1.8-2.3 1.8-5.3v-8.2l.8-.2c1.2-.3 4.2-.9 7-.9.8 0 1.7-.1 2.4-.2.8-.1 1.4-.1 1.9-.1 1.8 0 2.7.8 2.9 2.5.5 3.2 2.2 3.8 5.8 3.8 2 0 8.7-1 14.1-1.8h.1c4.9-.7 7.9-1.2 8.8-1.2 2.9 0 5 1.1 6.2 3.1 1.5 2.4 2.9 2.9 5.8 3.4.3.1.7.1 1 .2 2.5.4 4.3.7 4.7 3 .4 2.1 2.9 3.3 6.8 3.3 3.4 0 8.3-2.5 9.8-4.9.7-1.1 1.1-2.8 1.2-4.9l.1-1.3 1.2.4c.4.1 1 .3 1.6.3.4 0 .8-.1 1.1-.2.8-.3 1.3-.8 1.7-1.7.3-.7.7-1.1 1.3-1.3.3-.1.6-.1 1-.1 1.8 0 4.2 1.3 6.4 2.5 1 .5 1.9 1 2.7 1.4 3.8 1.6 7.2 2.5 9.9 2.5 2.8 0 4.2.2 4.5.3l.4.1.2.4c.2.4.7 1.3.9 1.8.1.4.5 1.4.8 2l.3.6v.1c0 .1.1.3.1 1.5v.3c0 .9.1 1.8-.1 2.4-.2.6.3 2.1.6 2.6v.2c.2.4 1.5 3.6.7 5.5-.3.6-.7 1-1.4 1.3-2.9 1-3.3 2.4-3.3 3.8 0 .3-.1.8-.2 1.5-.3 1.7-.7 4.2.2 5.2.2.2.5.5 1.3.5h2.3c1.9 0 2.2.9 2.4 2.2.5 2.6 1 4.3 3.3 4.3 3.1 0 5.3.8 6.2 2.1.5.7 1.5 2.2 2.5 3.6l.5.7-.7.6c-1.3 1.1-5.6 5-7 6.4-1.8 1.8-8.9 2.7-12.2 2.7-.4 0-.7.1-.9.3-.5.7.3 2.6 1 4.3.7 1.6 1.1 2.7 1.1 3.5 0 1.6 2.3 3.8 3.9 5.4.7.7 1.3 1.3 1.7 1.8.5.6 1.3 1.3 2 2 1.1 1 2.3 2 2.7 3.1.4.9 2.4 3.3 5.1 6l.3.3v8.1c0 1.9-.3 4.2-.9 4.9l-.3.3h-1c-.4 0-1 .1-1.7.1-1.5 0-3.4-.1-5.6-.4-.4 0-.7-.1-1.1-.1-4.3 0-6.7 3.2-7 3.6l-.5.7-1.2-.6c-1.5-.7-1.5-2.4-1.5-4 0-.7 0-1.5-.2-2.2-.5-1.8-6.6-2.8-9.8-2.8h-14c-1.8 0-2.8 2.7-2.8 5.3 0 2.7-2.1 4.3-5.8 4.3-2.6 0-3.4-.8-3.6-1.3-.7.7-2.8 2.5-4.7 3.7-1.7 1-1.1 3.1 0 6.1.2.6.4 1.1.6 1.6.2.6.1 1.1-.2 1.5-.2.5-1 1.4-4.9 1.4z"/><path id="lorestan" d="M354.5 514.1c-.8-1.5-1.5-2.8-1.9-3.6l-.3-.6c-.9-1.8-2.2-3.2-4.2-4.6-1.5-1-4.5-1-5.5-1h-2.4c-1.6 0-5.4 0-8.1-1-2.6-1-6.3-2-7.9-2-2.3 0-9.6-.4-11.8-2.4-1.6-1.4-3.3-2.1-5.3-2.1-.5 0-1 0-1.5.1-1.1.2-3.7.3-6.8.3-3.1 0-6-.1-7.6-.3-.5-.1-1.1-.1-1.6-.1-3.2 0-7.5.8-9.1 3-1.6 2.1-4.3 4.7-5.4 5.6l-.4.3-.5-.1c-1-.2-2.7-.7-3.2-1.8-.6-1.4-3.4-3.3-4.1-3.8-.6-.4-1.2-.7-1.8-1-1-.5-1.4-.7-1.7-1-.2-.3-.5-.6-.8-.9-.3-.4-.6-.8-.9-1.1-.4-.4-1.6-1-2.7-1.5l-2.5-.3h-.1c-.5-.2-4.9-1.7-5.6-2.2-.2-.2-.4-.3-.7-.5-1.4-1-2-1.5-2.2-1.9-.3-.4-1.1-.8-1.6-1-.2-.1-.3-.1-.4-.2-.6-.3-1.3-.9-1.6-1.7-.2-.7-1.6-2.6-2-3-.2-.1-.8-.5-2-.9l-.3-.1-.2-.2c-.7-.9-1.4-1.5-1.9-1.7-.3-.1-1.1-.4-2-.9-2.2-1-6-2.6-6.8-2.7-1.1-.1-1.5-.9-1.9-1.6-.1-.1-.1-.3-.2-.4-.5-.8-1-1.1-1.6-1.5-.6-.4-2.8-2.1-3.2-2.5-.1-.1-.3-.4-1.7-.7-.3 0-3.7-.6-4.4-1.4-.8-.8-1.1-1.4-.4-2.6.2-.3.2-.7.1-1.1-.2-.5-.6-.9-1-1-.9-.3-4.7-2.5-4.9-2.6l-.1-.1-2.2-2s-1.1-1.1-1.7-2c-.5-.8-1.2-1.6-.5-2.6.2-.2.2-.5.3-.8.1-.6.3-1.2 1.1-1.4.6-.2 1.4-.2 2.2-.2.8 0 1.1.1 1.3.2h.1l.1.1c.3.2.5.4.8.7.3.2.5.5.8.7.3.3 1.2.4 2.2.4h.1l1.5.2c.3-.8.4-1.3.3-1.5-.2-.4-.3-1.1-.5-1.6l-.1-.5.3-.4c.5-.5 1.6-1.8 2.1-2.2.2-.1.2-.3.2-.7V447l1.1.1c.6 0 1.1.1 1.6.1.9 0 1.4-.1 1.6-.2.5-.2 1.2-.6 1.7-1.1l.5-.5.7.4c.3.1.7.3 1.1.3.3 0 .6-.1.9-.3 1-.7 1.6-.9 2.2-.9.3 0 .6.1.9.3.2.1.9.4 2.1.4 1.1 0 2.3-.2 3.2-.5 3.4-1.3 3.7-2 3.7-2.1v-.2c.1-.4.5-1 2.1-3 .2-.3.3-.4.4-.5l.1-.1.1-.1c.1-.1.3-.3.7-.5.6-.4 1.5-.9 1.9-1.6.6-.9.4-1.6.3-2.2 0-.1-.1-.3-.1-.4-.1-.4-.3-1.6-.7-3.2v-.4c0-.2.1-.9.1-1.5v-.3l.1-.1-.1-.1-.1-.3c0-.1 0-.1-.1-.2-.4-.8-1.5-2.8-1.7-3.2-.2-.4-1.3-1.6-1.7-1.9v-.1c-.4-.5-.9-2.1-1-2.4v-2.5l.2-.3c.5-.7 2.4-2.9 3.5-3.6.7-.4 1.6-1.6 2.6-2.7.8-1 1.6-1.8 2.1-2.3 1.1-.9 2.2-4.8 2.3-5.7.1-.6.7-2.8 1.1-4l.4-1.2 3.7 2.2 1.6-.4 1.5.9h7l-.2 1.2c-.1.8 0 1.5.4 2.2 1.5 2.5 2.4 3.4 5.8 3.4 3.7 0 5.7 1 6.2 3.2.5 1.9 1.5 5.9 4.4 7.9 2.8 1.9 8.8 4.2 9.4 4.5.2 0 1.6.3 3.2.3s2.9-.3 3.6-.8c.5-.3.7-.8.8-1.3.5-3.7 3.4-4.2 5.7-4.2.7 0 1.5-.1 2.3-.2.8-.1 1.8-.2 2.6-.2 1 0 2.2.1 2.8.9.5.7 1.4 1.8 2.2 2.9.9 1.2 1.8 2.3 2.3 3.1.7 1 3.3 2 5.3 2 .5 0 .8-.1.9-.1.5-.2 1.2-.4 2-.8l1-.4.3 1c.3 1 1.1 3.3.8 4.9-.1.6 0 1.2 0 1.8.2 1.2.3 2.3-1.1 3.7-.4.4-1 .9-1.7 1.4-1.4 1.1-2.9 2.3-2.7 3.1.1.3.5.8 2.2 1.1 5.6 1 7.6 1 10 1 2.8 0 4.3 1 4.3 2.9 0 1.5 1.5 4 2.3 5.1.3.1 1.9.8 3.5.8 1.5 0 2.5-.5 3.1-1.7.5-1 .9-2.1 1.2-3 .6-1.7 1-2.8 1.8-3.2.2-.1.4-.1.6-.1.3 0 .5.1.8.2 2.3 1 3.9 1 6.2 1h1.5c.5 0 1.1-.1 1.7-.1 1.6 0 2.4.2 3 .7.3.3.4.6.4 1s0 .9-.1 1.4c-.2 2.2-.4 4.9 1.3 6.4 2 1.7 6.1 3.9 7.3 4.5l.4.2.1.5c.3 1.5.7 3.3.9 3.9.1.2.1.5.2.8.4 2.2.9 3.4 2.3 3.4.9 0 1.7 0 2.4.1.6 0 1.2.1 1.6.1.6 0 1 0 1.2-.1.5-.2 1.4-.6 2.6-1.3l1.1-.6.3 1.2c.5 1.6.9 3.8.3 5.7-.8 2.3-1.6 2.9-3.1 3.9-.4.2-.8.5-1.3.9s-1.1.7-1.7 1c-1.3.7-2.2 1.2-2.2 1.9 0 .2-.1.8 1.2 2 3 2.7 4.3 4.1 4.4 5.2 0 .3-.1.6-.4.9-1 1-2.1 2.1-5.5 2.1-3 0-7.5-.3-8.6-.3-.6.5-1.5 1.5-1.5 2.4 0 .7-.1 2-.2 3.3-.1 1.4-.2 2.7-.2 3.3 0 .9.5 2.4.9 3.4l.1.2v.2c0 .4.1 1.9.6 3.4l.3.8-.8.4c-1.3.6-5.5 2.7-7.2 3.8-2 1.3-5.3 3-5.4 3l-1 1-.5-1.2z"/><path id="markazi" d="M381 468.2c-.5 0-1.1 0-1.6-.1-.7 0-1.5-.1-2.4-.1-2.1 0-2.5-2.3-2.7-3.7-.1-.3-.1-.6-.2-.8-.3-.8-.7-2.7-1-4.2-.8-.4-5.4-2.8-7.6-4.6-1.9-1.7-1.7-4.6-1.5-6.7 0-.5.1-1 .1-1.4 0-.3-.1-.5-.3-.6-.6-.6-2.1-.6-2.6-.6-.6 0-1.2 0-1.8.1h-1.5c-2.4 0-4.1 0-6.4-1-.2-.1-.4-.1-.6-.1-.1 0-.2 0-.3.1-.6.3-1 1.4-1.5 2.8-.3 1-.7 2.1-1.2 3.1-.4.9-1.4 1.9-3.6 1.9-1.5 0-2.9-.5-3.5-.7l-.3-.1-.2-.3c-.4-.6-2.2-3.4-2.2-5.3 0-.6 0-2.4-3.8-2.4-2.3 0-4.4 0-10-1-1-.2-2.4-.5-2.6-1.4-.2-.9.4-1.6 2.9-3.6.6-.5 1.2-1 1.6-1.4 1.2-1.2 1.1-2.1 1-3.3-.1-.6-.2-1.2 0-1.9.2-1-.1-2.8-.8-4.7l-.3-.9.9-.3c1.7-.6 2.8-1 3.6-1.2 1.4-.4 4-2.2 4.7-4.1.3-.8.2-1.4-.3-2-1.8-2.2-4.3-9-5-11v-.1l-2.5-8.5c-.2-.9-.9-4.9 1-7.3.8-1 1.2-2.1 1.5-3.1.5-1.6 1-2.9 2.7-2.9 2.1 0 3.3-2.1 3.3-4.3 0-1.9-.4-7.7-.5-8.4v-.4c.5-1.7 3-10.1 8.2-10.1 7.4 0 8.3-2.6 8.3-3.8 0-1.8 1-4.8 1.7-7.1.3-.9.6-1.9.8-2.5.1-.4.2-.8.4-1.3.5-1.3 1-2.9.5-4-.2-.4-.6-.8-1.2-1-1.9-.6-4.1-1.6-4.7-3.2-.3-.8-.1-1.7.6-2.7 1.6-2.4 3.5-6.3 4.2-7.8l.4-.8.8.3c.6.2 1.4.3 2.4.3 1.4 0 3.1-.2 4.9-.5l.5-.1c3.3-.5 4.8-3.7 4.8-5.2v-.3l.2-.3c1-1.4 7.2-2.2 9.6-2.2 2.6 0 7.1.5 11.1 2 .7.2 2 .5 4.7.5 5.2 0 11.5-1 11.6-1h.2c.1 0 10-.5 12.5-.5h3.4c1.7 0 4.1.1 6.7 1.1 1 .4 2 .8 2.9 1.2 3 1.3 6.4 2.8 10.5 2.8 1.5 0 2.5.4 3.1 1.2 1.1 1.3.6 3.4.3 4.9-.1.5-.2.9-.2 1.2 0 .6-.3 1.7-.7 3.3-.6 2.3-1.3 5.1-1.3 7.2 0 2.5-1.5 3.1-2.9 3.5l-.5.1-.2-.2v.2l-.6.2c-.3.1-.6.2-.9.4-2 1-6.2 4.7-8.4 7-2.5 2.5-.7 7.9.1 10.2.2.7.5 1.7-.1 2.3-.4.5-1.2.7-2.6.7-1.1 0-2.5-.1-3.6-.2-.9-.1-1.6-.1-2.3-.1-3.7 0-5.7 1.2-6.5 3.9-.3 1-.9 1.7-1.8 2.1-.6.3-1.4.4-2.3.4-2.3 0-4.8-1-5.8-1.4-3-1.3-6.4-1.8-7.2-2l-1.4 4.3s-1 6.4-2 9c-.9 2.2-.2 5 2 8.3 1.9 2.9 6.4 2.9 9.3 2.9 3.3 0 3.3 2.8 3.3 5.8 0 1.4.9 2.5 1.8 3.8 1.1 1.4 2.2 2.8 2.2 4.7 0 .8.2 1.4.7 1.7.3.2.8.3 1.3.3.7 0 1.3-.2 1.6-.3H416.2c.7 0 4.1-.1 6.3-1 .8-.3 2.1-.5 4-.5 2 0 4.2.2 6 .3 1.3.1 2.4.2 3.1.2 2.4 0 3.5 2.2 4.5 4.1l.3.5c1 2 4.9 5.9 6.9 7.4 1.3 1 1.1 3.7.4 7.7-.2.8-.3 1.6-.3 2 0 5-.3 8.4-1 10.1-.9 2.2-4.9 4.1-8.5 4.1-1 0-2-.2-2.8-.5-1.2-.5-2.5-.7-3.8-.7-2.3 0-4.5.8-5.4 2.1-1.5 2.1-6.1 3.6-10.7 3.6h-4.4c-2.9 0-5.4.3-7.6 1.5-1 .5-1.9 1.2-2.8 1.8l-.1.1c-2.5 1.7-5 3.4-8.7 4.2-4.5.9-5.2 6.6-5.3 7.2l.4.9-.8.4c-.8.4-2.2 1.2-2.9 1.4-1 .4-1.4.4-2 .4z"/><path id="mazandaran" d="M514.4 306.1c-1.9 0-3.7-.4-6.1-2.1-1.3-.9-2.8-1.5-4.3-2.1-2.4-.9-4.7-1.8-5.3-4.1-.9-3.3-2.8-6.3-4.9-7.9-.8-.6-2.6-1.5-4.6-2.5-2.9-1.4-6.2-3.1-7.9-4.5-1.8-1.5-3.8-2.7-5.7-3.3l-.1-.1H475.2c-1-.3-1.9-.5-2.7-.5-2.7 0-8.6-.5-10.6-1l-.5-.1c-4.4-1.1-10.5-2.7-12.6-4.4-1.7-1.4-7.4-4.4-12.1-6.8l-.5-.3v-.6c-.1-3.4-1.1-7.5-3.4-8.9-1-.6-2.9-1.9-5.1-3.4-4.9-3.4-12.4-8.6-14.8-8.6-.8 0-1.8-.2-3.3-.7l-1.7-.5 1.4-1.2c2.7-2.3 5.8-5.3 6.4-7 1-2.5 4-9 4-9l2.9-6.9.4-1.4 3.8 2.4 1.1.2 1.1.5 1.9 1.8.7.7 9.2 4.7 8.4 5.7 4.7 2 16.3 3.1 10.5 2.8 10.7 1.9 10.3 2.8 10.6-1.3 9.6-3.4L532 240l10.4-1.9 10-1.9 9.9-2.9 9.7-2.8 19.5-4.1 2.7-.4 23.1-1.3 3.9-.8 4.3-3.6-.2 5.5-4.1 1.4-4.2.5-2.6.8-.9.4-1.1-.1-1.5-.4-.6.1-1.6.6-1.1.3-3.1-.5.1.9h-.2l.3.4 2 .8h.1l11.9 1.1-3 1.5c0 .8.1 4 .5 5.8.4 1.5 2.3 2.8 3.4 3.4 1 .4 6.2 2.6 8.9 3.5.9.3 1.5 1 2 2 .9 2.2.4 5.5-.3 6.9-1.1 2.2-6.5 3.7-8.2 4.1-1.1.3-2.1 1.8-2.6 3.2-.4 1-.6 2.3-.2 2.9 2.2 3.3.6 5.4-.6 6.3-2.1 1.7-11.4 9.8-14.8 12.8l-.3.2h-.3c-1.4.1-8.6.5-11.3.5-2.8 0-5.8 1.4-8.3 3.9-.8.8-1.5 1.8-2.1 2.7-1.5 2.1-3 4.3-5.5 4.3-2.7 0-7.9 2.5-10.3 3.9l-.4.6-.8-.2c-.4-.1-.8-.2-1.1-.4-1.1-.4-3.1-.8-5.4-1.3-4.6-1-8.2-1.8-9.7-2.7-1.4-.8-5.8-2-9.7-2-1.2 0-2.1.1-2.9.3-.8.2-1.4.6-1.6 1.1-1.5 3.1-6.1 6.6-8.6 8.1-2.6 1.6-6.7 2.5-9.1 2.5h-1c-.3.1-.7.1-1 .1z"/><path id="qazvin" d="M357.5 328.7c-1.3 0-2.3-.2-3.1-.6l-2.2-1.1h-.1c-2.2-1-4.6-2.2-5.7-2.9-1-.6-2.3-1.4-3.8-1.4-.7 0-1.3.1-2 .4-.6.2-1.1.3-1.7.3-.7 0-1.3-.2-1.9-.6-.8-.6-1.3-1.5-1.3-2.5v-.7c.1-1.9.1-3.4-2.4-5.1-3.1-2.1-9-6-11-7-1.6-.8-6.8-2-8.3-2.3l-.8-.2v-.8c.2-3.9.9-6.4 2-7.5l8.1-8.1.6.3c.6.3 2 1.1 4 2.8 1.4 1.1 3.4 2.5 5.1 2.5h.4c.7-.1 1.2-.4 1.6-.9.4-.5.7-1.1 1-1.8.8-1.6 1.6-3.5 4.7-3.8 4-.5 7.8-2.5 8.3-4.3.1-.6.4-1.5.8-2.9.9-3 2.2-7.2 2.2-8.6 0-1.7-1.1-4.9-1.7-6.6l-.3-.8c-.7-2.2-2-3.6-3.9-4.4-.7-.3-1.4-.6-2.2-1-1.8-.8-3.7-1.7-5.8-2l-.5-.1c-3-.5-6.7-1.1-8.2-4.1-1.5-3-2.6-7.1-1.5-8.8.7-1.1 2-4.6 2.9-7.3v-.1l2.9-4 .7.3c1.6.6 2.9 1 3.5 1.1 1.5.2 3 .4 3.6 1.4.5.8 1.3 1.3 2.3 1.5.3 0 .6.1 1.1.1.6 0 1.2 0 1.4-.1h3.4l.3.3c1 1.1 1.7 1.9 2.1 2.4 1.6 2.1 5.6 4.4 8.8 4.4 1.8 0 3.5.7 5.3 1.5 1.7.7 3.5 1.5 5.2 1.5 3.7 0 12.5 0 15.5-.5 2.4-.4 7.5-3.1 10.2-4.6.7-.4 1.3-.7 1.7-.9.2-.1.5-.2.9-.2 1.3 0 3.5.8 6.1 1.8 2.4.9 5.1 1.9 6.6 1.9 2.4 0 8.5 4.1 15.1 8.7l.1.1c2.1 1.5 3.9 2.7 4.9 3.3 3 1.7 3.5 7.2 3.6 8.9l.1 1.1-1.1-.1c-2.4-.2-6.7-.6-8.2-.9-.7-.2-2-.4-4.6-.4-2 0-4.4.1-6.8.4-1.1.1-1.8.5-2.2 1.1-.8 1.3.3 3.6.9 5.1l.1.1c.2.4.3.7.4.9.4 1.3 6 3.7 9.3 5.1l.5.2c1 .4 1.7 1.1 1.9 1.9.4 1.4-.5 3-.7 3.3l-.1.2-.1.1c-.6.5-3 2.1-6.5 3-2.8.7-6 5.1-8.1 8-.9 1.3-1.7 2.4-2.3 3-.7.7-1.6 1.4-2.5 2.1-1.9 1.5-3.9 3-3.9 4.2 0 2-1 7.6-3.1 8.7-.8.4-1.4 1.3-1.4 2.3 0 1 .5 1.9 1.4 2.3 1 .5 2.4 1.5 4.2 2.9l1.8 1.5-2.3.3c-2.3.3-6.6.8-10.1.8-2.2 0-3.8-.2-4.8-.6-3.9-1.5-8.3-2-10.9-2-4 .1-9.3 1.2-9.3 2.3 0 1.5-1.5 5.2-5.2 5.7l-.5.1c-1.3.1-3 .4-4.5.4z"/><path id="qom" d="M438.9 414.3c-1-2.1-2-3.7-4-3.7-.7 0-1.8-.1-3.1-.2-1.9-.1-4.1-.3-6-.3-1.8 0-3.1.1-3.8.4-2.3.9-5.9 1-6.5 1h-.1c-.3.1-1 .3-1.8.3-.6 0-1.1-.1-1.6-.4-.6-.4-.9-1.2-.9-2.1 0-1.7-1-3.1-2.1-4.4-1-1.3-1.9-2.5-1.9-4.1 0-3.6-.3-5.3-2.8-5.3-3 0-7.6 0-9.7-3.1-2.3-3.4-3-6.4-2-8.7 1-2.4 1.9-8.6 2-8.9v-.1l1.6-4.7.8.1c1.5.2 4.3.8 6.9 1.9 1 .4 3.4 1.4 5.6 1.4.8 0 1.5-.1 2.1-.4.8-.4 1.2-.9 1.5-1.8 1.1-3.9 4.5-4.3 7-4.3.7 0 1.4 0 2.2.1 1.3.1 2.6.2 3.6.2 1.2 0 1.9-.2 2.2-.6.3-.4.3-.9 0-1.9-.8-2.4-2.7-8 .1-10.8 2.7-2.7 6.6-6.1 8.6-7 .5-.3 1-.4 1.7-.6l.4-.1.4.2c.9.6 2.6 1.5 4.6 1.5 1.2 0 2.4-.4 3.4-1.1 2.9-1.9 7.1-2.2 9.4-2.2 2.8 0 5.6.5 7.4 1.2 2.4 1 8.4 2.4 13.3 3.4l.8.1.1.8c.1.8.5 2.6 3.4 3.7 1.5.6 3.6 1.1 5.4 1.6 4.3 1.1 6.1 1.7 6.7 2.5.6.8 4.1 3.8 9 7.6l.6.4-7.1 22.8-.5.2c-1.2.4-7.3 2.4-8.7 2.4-1 0-6.7 1.2-11.9 2.5h-.2c-.9.1-8.6.5-11.9.5-3.6 0-6.5.5-7.9 1.5-1.4.9-7.5 3.6-8.4 4-.1.6-.5 2.8-.5 5.8 0 .9.1 1.6.1 2.3.2 2 .3 3.2-1.7 4.5-1.7 1-3.5 1.8-4.4 2.2l-.9.4-.5-.7z"/><path id="semnan" d="M554.1 404.9c-3-2-7-4.6-8.8-5.3-.9-.3-2.4-.9-4.2-1.6l-.2-.1c-3.4-1.3-7.3-2.7-8.6-3.4-.5-.2-1.4-.5-3.2-.5-2.5 0-6 .6-9.2 1.5-1.6.5-3.7.7-5.9.7-4.3 0-8.8-.9-10.8-2.3l-7.7-5.1 7.1-22.7.1-.2c2.7-2.9 5.3-6.6 5.3-8.2 0-2.5 0-5.4-1.9-7.3-1.9-1.9-4.5-5-5.5-7.1-.6-1.2-2.3-5.3 0-8.3 1.9-2.3 2.5-5.2 1.5-7.2-.6-1.2-2.4-5.9-.8-7.4.2-.2.7-.5 1.4-.5.8 0 1.9.4 3.3 1.1 7.5 4 10 5 12.5 6 1 .4 1.9 1.2 2.9 2 1.6 1.3 3.3 2.9 6 3.5 1.2.3 2.4.4 3.6.4 3.6 0 6.1-1.1 6.6-2.3 1.1-2.3 6.7-8.2 12.1-10.6 3.5-1.6 6.6-4.2 9.1-6.4 1.3-1.1 2.5-2.1 3.3-2.6 1.4-.9 2.5-2 3.5-3.1.7-.8 1.3-1.5 2-1.9 1.1-.7 2.8-2.6 3.7-3.7-.8-.2-3-.8-5.2-1.5l-2.3-.7 2.1-1.1c2.5-1.3 7.1-3.6 9.8-3.6 2.3 0 3.6-2 5.1-4.1.7-1 1.4-2 2.2-2.8 2.6-2.6 5.7-4.1 8.7-4.1 2.8 0 10.5-.4 11.4-.5 1.6-1.4 12.6-11.1 14.9-13 2.3-1.8 1.5-4.1.4-5.7-.5-.7-.4-2 .2-3.4.6-1.5 1.7-3.2 3-3.5 3.9-1 6.7-2.3 7.7-3.6l.3-.4h.5c1.1 0 6.7-.2 11.3-.2 3 0 4.9.1 5.9.2.2 0 .5.1.8.1 3.6 0 10.4-2.4 12.9-4.5.9-.8 1.6-1.6 2.3-2.3 1.2-1.4 2.1-2.2 3.1-2.2.4 0 .9.1 1.4.4.5.3 1.1.5 1.8.5.4 0 .9-.1 1.4-.2 2.3-.6 4.6-2.6 6-5.2 2.5-4.6 8.7-6.6 13.7-6.6h12.9l.2-.2c5.7-4.1 7.6-5.4 8.2-5.8 1-.7 3.9-3.9 6.4-6.9-.1-1.1-.8-10.2 2.7-11.6 2.9-1.3 4.3-3.3 4.3-6.3 0-2.8 3.6-5 5.1-5.7 1.8-.9 4.8-1.8 5.4-2h2.4l.5 9h4.3c2.2 0 2.3 5.6 2.3 6.3 0 3.1-.8 5.4-2.6 7.7-1.6 2-1.5 5.1-1.5 7.8v1.5c0 .8.3 1.4.7 1.6.2.1.3.1.5.1.8 0 2-.6 2.8-1.4 1.3-1.3 7.4-3.9 9.3-4.7l1-.4 1.1 3.8s2 4.4 3.9 6.4c1.9 1.9 2.9 5.4 3 6.1.4.4 3.7 3.9 8.3 4.4 1.3.1 2.4.2 3.2.2 2.1 0 3.2-.4 5-1l.6-.2c1.5-.5 1.9-1 2.3-1.3.5-.5.9-.7 1.8-.7.5 0 .9.2 1.2.5.7.7.7 2 .6 3.5v.8c0 .7 1 1.5 1.9 2.2 1.1.9 1.8 1.5 2.1 2.2.5 1.4.5 6.2.5 7.2v.5l-8.9 6.9 7.4 9.9L785 288l.4 9.7.1.1c4.4 3.7 14.7 12.6 16.2 14.4 2 2.4 4.1 7.1 1.8 10.5-1.5 2.2-.7 6.5-.1 9.7.3 1.4.5 2.5.5 3.3 0 2.9-4.1 3.9-7.5 3.9-3.6 0-6.4 1.4-7.1 2.4l-.2.3c-1 1.6-4 6.4-10.2 6.7-4.4.2-7.6 2.1-9.2 5.3-1 1.9-3.1 5.7-5.1 7.7-1.2 1.2-4 4.7-6.2 7.4-1.9 2.4-3.7 4.6-4.4 5.3-1 1-8.7 14.8-15.4 27.2l-.3.5-84.5 1.5-99.4 1.2-.3-.2z"/><path id="sistan-baluchestan" d="M1048.1 1040.9l-2.6-1.1-.4-.8-.4-1.4-9.3-3-9.5-1.7-8.1-2.1-5.8-.7-2.2-1.5 1.2-1.1-1-1.6-.3-1.3v-3.7l-.1-.2-2-2.1-.6-.4-.7-.1-.8.1-3.9 1.2-.6.4-.4.8-.9 1.1-.3.5.2.3.1.9h.1l.6.4h.4l.9.3.4 1.1v.6l1.2 2.2.7 2.4h-2.4l-1.1-.3-3.5-3.4-.9-.5-3.1-.5-2.2-1.7.6-1.1h-.4l-2 .1-1.3.3-.1.1.1.2-.2.9-.4 1.6-1.2 1.2-1.8-1.2-.4-.2-2-.3-.9-.5-.8-1.2-.2-.6v-.2h-.2l-2.3-.6-2.2.1-4.5 1.3-.1.1-.4.7-1.3.3-2.8-2.7-.3-.6-.3-.9-.4-.2-10.2 1.1h-2.6l-2.8-1.3-3.5-3.7-2.1-.8-2.3.1-8.3 3.1-1.8.2-2.3.4V1017.9c.5-10.9.8-17.9.8-19.5 0-2.6-1-4.5-1.8-6l-.3-.6c-.8-1.7-5-7.5-6.6-8.7-1.3-1-3.6-2.9-3.5-4.6 0-.7.4-1.2 1-1.6 2.6-1.7 3.1-2.5 1.6-5.1-1-1.8-3.4-7.5-5.3-12.1l-.1-.3c-1.3-3.2-2.4-5.9-2.9-6.9-1.2-2.3-2.6-10.4-2.9-12l-.1-.7.6-.3c.6-.3 1.1-.7 1.6-1.1.9-.7 1.8-1.3 2.7-1.3 1.4 0 4-.3 4.8-.4-.1-1.4-.8-7.9-.8-9.4 0-4.6-.9-7-2.7-7.3-3.1-.4-6.1-4.8-6.5-6.5-.4-1.8 0-2.7 1.3-5.2 1.2-2.4.4-4.7-.4-6.9-.3-.7-.9-1.9-1.5-2.9-1.4-2.6-2.3-4.5-2.3-5.6 0-1.7.8-6.8.8-6.8l3.3-30.6c0-.8.8-21.9 1.3-23.4.1-.2.1-.4.2-.7.6-2.3 2.1-8.3 6.8-8.3 5.4 0 6.5-1 6.5-2.7V810l-4.2-5s-.6-.7-.5-1.5c.1-.7.8-1.3 1.9-1.8 2.5-1.1 4.9-2.7 5.6-3.2l.3-.2h.4c1.7.1 17 1.2 19 1.2.5 0 2.3-.1 2.8-1 .3-.5.1-1.2-.4-2-1.7-2.5-1.3-19.3-1.3-20.3-.7-5.2-1.7-9.2-2.4-9.9-1.4-1.4.4-4.6 2.1-6.2.8-.8 1.1-3.1-1.7-9.8-1.3-3-2.5-13.2-2.5-15.2 0-1-.7-12.7-1.5-23.9l-.2-2.7c-.8-12.4-1.3-20.5-1.3-21.3 0-.9.4-14 1.3-15.6.4-.6 1.1-3.7 1.6-9.2l.1-.6 27.7-11.3c.2-1.4.8-6.4.8-7.8v-.4c0-1 0-2.2.8-3 .6-.7 1.7-1 3.2-1 4 0 10.3-.8 11.6-1.6.5-.3 5-3.4 4.1-6.4-.2-.7-1.8-6.6 0-9.6.5-.9 1.3-1.4 2.3-1.6 1.8-.4 5.1-1.3 8.3-2.2 5-1.4 8.3-2.4 9.4-2.4 2.1 0 5.9-1.8 7.8-3.7 1.6-1.6 4.6-6.9 6.2-9.9l-.2-1.2 1.3.1 14.4 2.1 31.5 4.7 1.8.7 1.3 1.1 2.3 2.9.5 1.7-.4 3v1.1l.5 1.1 1.6 2.6.6 1.8.1 2.1.1.5.9 2.1.9 2.5.2 1.6v1.5l-.5 1.7-1 1.9.2.5.2 5.5-.5.3-.1.7.3 1.1-1.4 1.5-18.9 23.3-28.3 34.5-7.3 8.8 7.3 8.9 17.5 21.6 1 .8 1.2.5 1.4 1 .6 2.3-.1 1.6-.7 2.5v1l.5 1.1 1.9 2.1.8 1.4.3 1 .2 1.6.2.5.3.4.2.1.5.1 1.1.5.8 1.4.3 1.3.2.6.7.4.9.6.4 1.2-.4 1.3-.8.6-.1.1.7.3.9.8.6.9 2.4 6 .5 1.5.1 1.2.2.7 1.7 1.9 1.7 3.8 1.6 1.9 6 5.7 2.5 3.3 3.7 3.6 1.7 2.1.8.5 3.5 1 2.8 1.7 1.6.5 3.8.3 2 .4 4.9 2.3 7.7 1.6 2 1.1.8 1 .5 1 .4.6.7.4 1 .3.9.6.6 1 .4 1.2.7 1.3 3.5 4 .7.4 9.6-2 2 1.3.4 3.1-1.8 14.8 2.6 11.3 2 23.3-.4 3.1-2.8 6.9.8 1.1.4 1-.1 1.5-.3 1.1-.4 1.1-.4.4 1.2 1.1.5.3.6-.4.9-.2.9.3 1.3.8 1.5.3 1.4-.1 3.3-.7 1.6-.3 3.1-1h1.8l1 .1.5-.1 3.3-1h1l1 .4 1.7 1.5.4.4 1.5.5.7.6.7.8 1 1.4 3 6.8-3.1-1.1h-.8l-.7.4-.4.7-.2.8-.7.9-.1.4-.1.6.3 7.6.4 1.1.7 1.1.6 1.4-.2 2-1.4 1.3-2.5.4-.5.3-.2.6-.5 9.9-.7 3.2-1.8 1.8h-1.4l-.6-.5-.4-.2-.3-.1h-.2l-1.6.4h-2.5l-2.3-.4-13.7-.4-.2.1-.2.3-.7 1.3-1.1.8-.7.3-2 .4h-.9l-.8-.4h-.1l-.4.5-.6.6-1.6.5-9.7 1.1-.4.1-.1.1-.4.9-.8.6-.9.2h-1.6l-.2.1-.8.7-.7.3-.9.4-.3.3-.2.2v.1l.1.1.3.5v1l-.8 1.5-1.8 1.9-.2.4.2 1.2.6 1.4v1.8l-2.1 1.1-2.5-.4-2.6-1-1.5-.2-.5.9-.3 1.8-.9 1.2-2.7.5-1 .3-1 .6-2.1 1.4-7.1 2.2-1.1.8-.7 1.6-.5 2-2.9 22.8-.5 1.4-1.2 1.6-1.5.3h-1.1l-.8.2-.8 1.3.3 2.1.7 2.8-.2 2.8-.6.9-.8.9-.2.4-.1.7-1.3 22.8-2.2 6.7.5.5-.6-.1-.6 1.8-.6-1.9-2.6-.4.7.9-.6 1.4-1 1.3-.1.4v.5l-.3.6-.7.7-1 .6-1.6.5 2.4 2.7-14.6-4.2zm18.9-7.6l-.1-.8-.4-.3v.3l.5.8z"/><path id="tehran" d="M502.2 366.1c-1.3-1-8.1-6.3-9-7.6-.6-.8-3.5-1.6-6.4-2.3-1.9-.5-3.9-1-5.5-1.6-3.5-1.3-3.7-3.8-3.7-4.5-1.8-.3-10.6-2.1-13.8-3.5-1.7-.7-4.4-1.2-7.2-1.2-3.7 0-7 .8-9.1 2.1-1.2.8-2.4 1.2-3.7 1.2-1.2 0-2.4-.3-3.6-.9l-1.8-.9 1.8-.9c.7-.3 1.5-.9 1.5-2.6 0-2.2.7-5 1.3-7.3.4-1.5.7-2.7.7-3.2 0-.3.1-.7.2-1.3.3-1.3.7-3.3-.2-4.5-.5-.6-1.4-1-2.8-1-4.2 0-7.5-1.4-10.7-2.8-.9-.4-1.9-.8-2.9-1.2-2.5-.9-4.8-1.1-6.4-1.1h-3.4c-1.1 0-3.5.1-7.4.3l-2.5.1 1.7-1.7c.1-.9.8-7.1 4.7-7.6.7-.1 1.5-.2 2.3-.3 3.9-.5 8.9-1.2 14.2-1.2 4.4 0 8.5-.2 11.2-.4 1.3-.1 2.3-.1 2.8-.1.9 0 4.1-.2 6.3-2.9.8-1.1 1.3-2.2 1.8-3.3.6-1.5 1.3-3 2.7-4.2.5-.4.9-.7 1.3-1.1l.1-.1c1.7-1.5 3.4-2.9 5.5-2.9.3 0 .5 0 .8.1.4.1.7.1 1.1.2 1 .2 2.2.4 3.3.4 2.2 0 3.3-.9 3.8-2.9.6-2.8 1.4-4.1 2.1-5.1.4-.6.7-1.2.9-1.9.4-1.5.7-4.7.9-5.9l.1-1.3 1.2.5c1.8.7 3.6 1.8 5.1 3.1 1.7 1.4 5 3.1 7.8 4.5 2.1 1 3.8 1.9 4.7 2.5 2.1 1.6 4.1 4.8 5.1 8.1.6 2.1 2.6 2.8 5 3.7 1.5.6 3 1.2 4.4 2.1 2.6 1.8 4.3 2 5.8 2h2.1c2.3 0 6.3-.9 8.9-2.5 2.6-1.6 7-5.1 8.4-7.9.3-.6 1-1.1 1.9-1.3.8-.2 1.8-.3 2.9-.3 3.7 0 8.4 1.1 10 2.1 1.5.9 6 1.9 9.5 2.7 2.3.5 4.3.9 5.4 1.3 2.1.7 5.5 1.7 7.3 2.2l1.5.4-1.1 1.2c-1 1.1-2.3 2.5-3.3 3.1-.6.4-1.2 1.1-1.9 1.8-.9 1-2.1 2.3-3.6 3.2-.9.5-2 1.5-3.3 2.6-2.5 2.2-5.7 4.8-9.3 6.5-5.4 2.4-10.9 8.4-11.9 10.4-.9 1.8-4.2 2.5-7.1 2.5-1.3 0-2.5-.1-3.7-.4-2.8-.6-4.7-2.3-6.3-3.6-1-.8-1.9-1.6-2.8-2-2.5-1-5-2-12.5-6-1.3-.7-2.3-1-3.1-1-.6 0-.8.2-1 .4-1.2 1.2.1 5.1.9 6.9 1.1 2.1.5 5.3-1.5 7.8-2.2 2.7-.5 6.6 0 7.7 1 2 3.5 5 5.5 6.9 2.1 2.1 2.1 5.2 2.1 7.7 0 2.2-3.9 6.8-5.1 8.1l-.6.7-.4-.8z"/><path id="yazd" d="M632.8 710.7c-.1-.1-3.4-4.3-3.4-6.8s-1.2-7.9-2.9-9.9c-1.3-1.6-4.7-4.4-6.6-5.7l-.1-.1-.1-.2c-.8-1.2-4.5-7.2-2.9-8.8 1-1 1.7-4.8 1.9-7.9-.1-2-.5-11.2-.5-14 0-3-.5-5.4-2.9-7.3-.7-.5-1.2-1-1.8-1.6-1.5-1.3-2.7-2.4-4-2.4-1.5 0-10.3-.5-17.5-1h-.7l-.3-.4c-2.3-3.1-5.6-6.9-7.7-7.6-3-1-23.5-12.5-24.4-12.9l-.2-.1-9.2-11.2.6-.6c1-1.1 4.5-4.7 6.6-5.6 1.2-.5 2.1-1.6 2.4-2.9.2-1.4-.4-2.9-1.9-4.2-2.5-2.1-4.7-5-5.9-6.6l-.9-1.2 1.5-.3c.9-.2 1.7-.4 2.3-.8 2.8-1.4 6.2-1.7 8.5-1.7 1.5 0 2.7.1 3 .2l6.8-7.7-10.9-12.9v-.4c.7-6.3 1.5-14.3 1.5-15.7 0-1 .1-6.9.3-12v-.9c.1-5.2.2-10.2.2-11.1 0-1.1-.7-3.7-1.8-6.8l-.3-.8.7-.4c2.6-1.6 13.8-8.4 16-9.7 2.6-1.5 7.6-1.5 11.6-1.5 2.2 0 7.7-.2 12.1-.3 3.9-.1 8-.2 9.4-.2 2.8 0 5.8-2.9 5.8-5.8 0-2.8 2.8-3.6 5.9-4.4.4-.1.9-.2 1.3-.4 1.1-.3 1.8-.6 2.5-.8 1.4-.5 2.5-.9 5.6-1.2 4.2-.5 7.3-4.2 7.3-7.3 0-3 2.4-7.3 6.3-7.3h17c1.5 0 2.4-.6 3.9-1.6.4-.3.9-.6 1.5-.9.9-.5 1.6-1.2 2.3-1.9 1.2-1.1 2.3-2.2 3.8-2.2.2 0 .4 0 .6.1.4.1.8.1 1.4.1 2.5 0 5.8-.7 6.4-.9.7-.5 7.7-5.8 9.5-6.5 1-.4 3-2.7 5.1-5.8l.3-.4h6.3c.6 0 1.5-.1 2.4-.6l.8-.5 11.2 16.1v.1c.1.3 3.7 7 4 9.2.2 1.4 4.3 8.1 8.3 14 1.2.3 14.2 4 17 4.3 3 .4 8.6 5.6 10 7.7.3.5.9 1.6 1.7 2.9 3 5.1 7.9 13.5 10.9 16 3.5 2.8 8.7 11.7 10.2 14.3l.4.7-.5.5c-.5.5-1.3 1.6-1.6 3.3-.4 2.4-.4 7.8-.4 8.2v.2c-.2 1.7-.8 6.6-.8 8.4v.7c0 2.2.1 5.5-2.7 6.7-.6.2-1.2.5-1.9.8l-.2.1c-2.7 1.1-5.7 2.3-6.6 3.3-1.2 1.2-5.9 3.2-6.4 3.4l-3.4 1.7-.5-.5c-.6-.6-2.2-2.1-4.1-2.1-2.5 0-7.3 1.6-7.3 4.8 0 1.8-.8 2.8-1.7 3.9-.8 1-1.7 2.1-2.1 4.1-.8 4.2-12.8 10.9-17.8 12.8-4.6 1.7-11.3 3.8-11.4 3.8 0 0-.7.3-1.7.7-4.1 1.6-13.8 5.4-15.4 6-2 .8-13.9 4.2-15.3 4.6l-.3.1-.3-.1c-1.1-.5-6.8-2.8-10-2.8h-.6c-3.3.4-7.4 1.6-8.8 2.1-1.1.4-3.7 1.4-4.4 1.6l.8 33.5-.4.3c-1.7 1.2-7.5 5.4-9.4 6.5-1.3.8-2.6 1.6-2.7 2.5 0 .2-.1.8 1.1 1.7 1.2 1 2.7 3.1 4.3 5.1 1.7 2.2 3.6 4.7 4.4 4.9 1.6.4 2.6 1.8 3.1 4.4.4 2.2 1.3 23.4 1.3 25.2 0 .9 1.1 5.3 2.7 11.3l.4 1.4-1.5-.1c-1.8-.2-3.8-.3-5.3-.3s-2.2.1-2.4.2c-1.5.4-10.4 1.4-12.1 1.6l-.6.1-5.7-9.6z"/><path id="zanjan" d="M311.8 315.4c-1.1 0-2.2-.5-3.1-1.4-.7-.7-1.5-1-2.4-1-.9 0-1.8.3-2.7.6-.9.3-1.8.5-2.6.5-1.2 0-2.2-.7-3.3-1.6-1.3-1-2.8-2.2-5.3-2.4-3.9-.4-7.1-2-7.9-2.4l-.2-.1-.1-.2c-.4-.5-3.5-5-4.4-6.4-1.1-1.6-4.1-1.9-5.8-1.9-2.8 0-3.3-2.4-3.7-4.7-.4-1.8-.7-1.8-2.1-1.8H266c-.7 0-1.3-.2-1.7-.7-1-1.1-.7-3.3-.3-5.6.1-.6.2-1.1.2-1.4 0-1.5.4-3.2 3.7-4.2.5-.2.9-.5 1.1-1 .6-1.4-.2-3.9-.7-5.1l-.1-.1c-.3-.4-.8-2.1-.6-2.9.2-.6.1-1.6.1-2.2v-.3c0-1.2 0-1.4-.1-1.4 0-.1-.1-.3-.2-.6-.3-.8-.7-1.6-.8-2.1-.2-.7-.7-1.7-1-1.9-.2 0-1.8-.3-4.6-.3s-6.2-.8-10.1-2.5c-.8-.3-1.7-.8-2.7-1.4-2.2-1.2-4.5-2.4-6.1-2.4-.3 0-.6 0-.8.1-.5.2-.8.5-1 1-.4 1-1.1 1.7-2 2-.4.1-.9.2-1.3.2-1 0-1.8-.3-2.3-.5l-.6-.3v-.7c0-1.2-.1-2.5-.3-3.4-.5-2.5-3-11.4-4-14-.8-2.1-2.8-8-3.6-10.5l-.1-.3.1-.3c.5-1.4 3-8.6 9.5-8.9 5.3-.3 6.7-2.5 7.7-4.1.3-.5.5-.9.8-1.2 1.4-1.4 3.1-2.4 5.1-3.1 1.9-.6 7.6-3.3 8.6-4.3.5-.5 3.4-2.8 6.2-2.8.9 0 1.8.2 2.5.7 2.2 1.5 4.4 2.2 6.5 2.2.7 0 1.4-.1 2-.2 2.6-.7 4.9-3.3 5.5-4.2.7-1.1 2.9-1.8 4.1-2.1.9-.2 3.6-1.6 5.4-2.5l-1.7-3.2 5.3 3.4c.5-.1 1-.1 1.6-.1 1.3 0 1.6.2 1.8.3l.2.1.1.2c.4.6.8 1.5 1 1.8l3 .8.2.3c.3.5.9 1.4.9 2.1 0 .6.5 1.9 1.8 2.3l.9.3c.5.2 1 .3 1.4.3.4 0 .6-.1.9-.4 1.2-1.2 2.9-2.7 4.2-2.7.2 0 .4 0 .5.1.5.2 1.5.3 2.4.3 1.4.1 2.8.2 3.6.7.1.1.5.3 1.5.3 1.5 0 3.4-.5 4.3-1.1l.7-.4.6.6c.4.5.8.7.9.8h.1l.1.1c2.6 2.6 11.2 11.2 12.5 13 1.5 1.9 5.2 10.7 5.5 11.5.3.3 2.8 2.8 5 5.1l1.6 1.7h-3.9c-.3 0-.9.1-1.5.1-.5 0-.9 0-1.2-.1-1.1-.2-2.1-.8-2.6-1.7-.5-.8-1.9-1-3.2-1.2-1.1-.1-3.4-1-4-1.3l-2.6 3.6v.1c-.2.7-2 6-3 7.5-.9 1.4.1 5.4 1.5 8.3 1.4 2.7 4.8 3.3 7.8 3.8l.5.1c2.2.4 4.1 1.2 5.9 2.1.7.3 1.5.7 2.2 1 2 .8 3.4 2.3 4.1 4.7l.3.8c.9 2.5 1.7 5.2 1.7 6.8 0 1.4-1 4.9-2.2 8.7v.1c-.4 1.2-.7 2.2-.8 2.7-.5 2-4.4 4.2-8.7 4.7-2.8.3-3.5 1.9-4.3 3.6-.3.6-.6 1.3-1 1.9-.5.7-1.2 1-2 1.1h-.4c-1.5 0-3.4-.9-5.5-2.6-2.4-2-3.8-2.7-4.3-2.9l-7.9 7.9c-1.1 1.1-1.7 3.6-1.9 7.6v2.8c0 1.1.6 1.9 1.2 2.6.7.9 1.4 1.8.8 3-.6 1.3-1.9 2.2-3.2 2.4-.6-.3-.8-.3-1-.3z"/></g><g id="seas" fill="#00BDFF" stroke="#0978AB" stroke-linecap="round"><path id="caspian-sea" d="M361.4 0l-1 .6-.6.8-.1 1.5.3 1.8v.8l-3.1 1.1-.6 1 .1 1.4.8 1.4.5.6.9.6.4.5.3.7-.4.4-.5.4-1.1.8-.4.2-.5.3-.4.7-.2.9-.1.6.3 1.4.7 1.4.2.8-.3.8-.5.6-.4.3-.4.4-.1.7.1.3.2.4.2.4-.1.5-.2.3-1 .6-.3 1v.5l.3.4-.2.9.3 1 1.3 1.7-.1.6-.8.5-1.5.8-2.7 3-1.1 1.8v1.1l-.7 1.2-.6 1.5-.4 1.6-.3 1.4.1 1.9.6 1.2 5.4 4.6.7.8.5.9-.1.3-.2.2-.4 2.3.1.7.5.8-.7-.3-.6-.5-.4-.5-.3-.6h-.4l.2 1.1.5 1.1.8 1 .9.6v.5l-1.3-.3-.9-.9-.7-.9-3-1.9-2 .7-1.5 1.8-.6 2.2.1 7.6-.5 2.1-.8 2.2-.3 1.1-.2 2.4-.3 1.5-.5 1.2-4.4 2.9-2.3.8-1.6-1.2.2-.8-.1-.6.1-.4.6-.6 2.6-.4.9-.5.8-1 .5-1.4v-1.4l-.7-1.3-1.1-.5-2.8-.1v-.6l-.4-2.9-.2-.8-1-.8-1.1-.2-2.6.1-.6.2-.4.5-.2.7-.5 1v1.1l-.2.6-.2.1h-.3l-.2.1-.1 3.2.2 1.7 1 1.5-.3 1.7-1.5 4.9-1.4 3-1.8 2-2.1-.5v2.4l.2 1.2.2 1 1.4 3.3.7 22.3.2 6-.7 2.1.4 1.4.1 3.7 1.1 2.5.9 8.5 2.4 8-.5 1.4v1.5l.2 1.5.5 1.1 2 3.1v.7l-.1.7-.1.5.6 2.7 1.2 2.6 3 4.1 3.9 3.9 4.3 2.8 9.4 4.6 4.4 1.4 22.5 2.9 2.4-.4 2-.7 1.9-.3 2.1 1-.6.1-.6-.2-.3-.1-.5.6 4.9 1.8 7.6 1.6 2.7 1 1.9 1.7-.2 2.5.5.9.7 2.5.6 1 .8 1.3 1.4 3.7 1.8 2.7 2 1.9 4.2 3 2.9 3.3.9.5 1.1.3 6.5 4.2 1.2.2.8.4 1.8 1.7.8.8 9.3 4.7 8.4 5.7 4.9 2.1 16.4 3.1 10.4 2.8 10.8 1.9 10.4 2.8 10.9-1.3 9.6-3.4 10.1-2.3 10.4-1.9 10-1.9 10-2.9 9.7-2.8 19.4-4.1 2.6-.4 23.1-1.3 4.2-.9 2.8-2.3-.1 2.6-3.3 1.1-4.2.5-2.7.8-.7.3-.8-.1-1.6-.4-.9.1-1.6.6-.9.2-3.4-.5h-3l.4.8.8.3 2-.1-1.2.3-.5.1 1.4 1.8 2.4 1 9.1.8.9.4 1 .4 7.4-1.9.7-.6.4-1.1v-7.2l-.3-1.1-.9-.5-1.1-.4.2-1 1.3-2.4-1.4-2-.9-2.6-1.3-5.8-1.8-4.5-.3-1-.5-5.9-.8-8.6-.6-2.8-1.1-2.7-.4-1.4-.2-3-2.1-9.2-1.1-19.9.2-1.1.8-2.3.6-3.4 1.5-5.2-.3-1.9.7-2.2.1-2.9-.3-5.1-.1-.5-.5-1-.3-.6-.1-.7-.1-1.4-.9-4.2-.1-1.5.5-5.6.7-2.8.9-2.3 2.8-4 1-2.5-.6-2.1.9-.6.4-1.3.3-1.4.6-1.1.6-1 .7-1.3.3-1-.5.2-.1-1.5-.8-.7-2.1-.7v-.1l-.2-.6-.1-.2-.3-.1-.7-.3h-.2l-.3-.5-.3-.5-.2-.7-.1-.7-.6-1.4-.7-.5h-2.3l-1.4-.4-.5-.1-.6.3-.3.4-.3.1-.6-.5-.5-1.1-1.2-3.2-.3-.7-.6.5.2 1.1.5 1.1.4.6v.5l-.9-.5-.8-1-.4-1.3.6-1.9-.5-1.3.1-.6.3-.5 1.6-1-1.7-.1v-1.5l1.3-3.1-1.2.6-1.6 1.1-1 1.1.9.5.5 7.6-.7-1-1.4-1.8-.7-1-.2-1.2-.1-1.4-.4-1.1-1.3-.1.3-.8.2-1.2-.1-.9-.6-.4-.3.4-.9 2.2-.6.7-.2-1.6.3-2 1.1-4-1.6 1.4 1-2.3.2-1-.4.2-1.2.3.7-1.5-.2-.5-.7.3-1 1.2-.4-.5-.7.4-2.5.1-1.1.9h-.5v-1.4h-.4l-.4.7-.7.7-.8.5h-.9l.3-.4.5-1.5h-.4l-.8.1-.4-.1-.1.1-.5.4h-.2l-.2-.1-.4-.7-.2-.1-.8.3-1.5.6h-.9v-.5l.3-.5-.1-.2-.5-.1-.7-.1-.7-.1-.9-.6-.6-.2h-1.2l-2.8.8-1.2.6 2.1 1.2.7.2-1.1 1.6-.4.9-.1 1.1.1 1.1.7 2.9-.2 1.7-.5.8-.6-.1-1.5-9.8-.4-.9-2.4-3.4-.2-1.2.5-1.3.6-.7 1.7-1.4.2-.7.2-.9.3-.8 1.2-.8.7-1.3 2.2-5.4 1.5-3 2.1-2 2.2.5-1.3.6-.9.7-1.7 2.2-.2.5-.5 2.1-.2.2-1.2 1.2.3 1.7 2.2.3 6.4-1.2 3.7.2 1.2.3.7.9.5 1.1.6.9.8.6 1 .3 2.4.1 1 .5h.6l.2-.7v-.7l-.2-.5-.4-.4-.6-.1.8-1.7.7.2.8 1.1.9.9h1.1l1.7-1.6 1.2-.3.6.2 1.3.7h.5l.7-.6-.2-.7-.6-.6-.6-.5-1.3-.4-2.5-.6-1.1-.8 1-.3.5-.5.1-.8-.6-1-.7-.7-.8-.2-2.8.3-.2-.4-.1-1.4-.2-.7-.4-.8-.7-.7-.7-.4.4 2.3v1h-.4l-2.1-3.1-1.5-1.3-1.6-.3.2.3.6 1.6-.4-.3-.9-.4-.3-.3V35l1.1 1.3.1 1.1-2-1.2-.2-2.5 1-5.3-.7.4-.8.1-.7-.2-.6-.3v-.5l1.9-.8 3.1-4 1.8-1.8-.3-.4-.3-.7-.2-.3.5-.3.5-.1 1.2-.1.8-.2v-.6l-.3-.4-.3-.2.6-.8 1-.8.8-.9.4-1.3-.3.2h-.1l-.2.1-.2.2-1-.9-.8-.2-2.2.1-1-.3-1.3-1.1-.9-.5-1-.2-1.1-.1-1 .3-.9.5-2.5 2.6-.9.3-.3.1-.9.7-.5.1-.4-.1-1.1-.7-.5-.1-.6-.3-3.8-2.7-1 .3-.9.8-.8.4-4.3.5.4-.6.3-.5.4-.4.6-.4-4.1 1.2-2.2.3-1.8-.5-.9-2.1-.9-.7-1 .9v.7l.4.9 1 1.5.2.8.4 3.9.4.6 1.6 2 .6.4 2.2 3.8 1.9 1.6.5.3v.5l-2.8-1.4.8.5 1.6 1.9-.4.4-1.8-1.7-.8-.9-1.7-3.7-.8-.9-2.1-.8-.6-1.1-.4-1.5-.4-2.7-.5-.7-5.6-4.1-2-1.9-.9-1.5.4-3 .5-1.7.5-1 .3-1.2-.6-1.3"/><path id="persian-gulf_3_" d="M269.3 730.4l-1.1 1.9-1.6 1.5-3.5 2.3-1.5 1.6-2.4 3.4-1.1 1.1-2.7 2.1-.7.3-.1.1.4.4.7.3.6.1 2.3-.5 2.2-.1.8-.2 1-.6.1.8-.7 1.6-.3 1.2.4.9.8.3 1.9-.1 1.5-.5 3.7-2.7 1.2-1.2.5-.1.7.7 1 1.5.9.8.6.2 2.5-.1.2.1-.3 3.9.1 2.2 1.8 4.8v1.1l-.1 1.1 3 10 1 2.3 2.9 4.6.9.8 2.3.8.1 1-.2 1.4-.1 1.4.5 1.3 1.6 2.4.4.8.6 1 1.3.6 2.5.5-.6 1.1-.3 1.2.1 1.3.4 1.1-.9-.6-.3-.3-.1.6v.3l.3.3.6.3-.5.5-.3.2-.2-.1-.2-.2h-.4l-.1 1.4.5.4.8-.4.8-.9.1.7.3 3.3.2.9.4.9.9 1.3.7.7 1.4 1.6.8.5 1.5.7.2.5.5 3.1v2.3l-.5 1.5-1.3-.5-.3.5-.1.2v.2l1.1.1 1-.2.7-.7.4-1 .7.4-.1.6-.6 1.3-.4 1.8v.8l.3 1.7.7 1.3 4.9 5.7.3.8-.8 1.3-.5 1.3v1.4l.3 1.4.6 1.1 1.9 2.7.3.7v.8l-.1.3.9.6 2 .9.6.1 2-.1.6.2 1.1.7.7.1.3.2-.1.4-.1.5-.3.3-.3.2h-.4l-.5-.2-1 .5-.2.5v1l.6.9 1.2 1.2 1.3 1.1 1.1.5v.3l1.3 2.1 2.4 2.5.3.6-.5 1.4-.1.9v.8l.2.4-.1.5-.5 1.1-.8 1.1-.8.6.5-.8v-.6l-.1-1.7.2-.9.3-.6.2-.6-.3-.9-.8.9-1 2.6-1 .7 1.1-3 .1-.8-.2-1.3-.5.1-.5 1-1.1 4.8-.1 1.1-.1.2-.2.4.1.4h.6l.4-.4.4-1.1.4-.5v3.1l.2.8.6-.1.5-.6.3-.8.4.8.1.9-.1 1.2.7.3.6-.4.4-.6.3-.7.1 1.2-.2.4-.3.3.3.6v.4l-.4.3h-.7l.6 1.5.2.4-1.4-.7h-.6l-.4.7 1.2.6 1.1-.1.8-.6.5-1.3h.4l.4 1-.7.8-.2 1.3.3 1.1 1 .1.5-.5-.3-.5-.4-.5-.2-.5.5-.6.6-.3 1.4-.4 1.1-.1.8.4 2.1 2 2.1 1.2.6.8-1.1.9.8.4.7-.1.4-.5-.3-.8 1 .5 1 .3 2.2.2.5-.2 1-.6.5-.2.6.1 1.2.4h.6l1.2.4.9.9 1.3 2 .5.4.4.2.4.3.3.5.2.6.1 1.2.2.6h-.8l-.4-.3-.2-.7.1-.9h-.4l-1.2 1.6-3.2-.4-1.2 1.2h-.4l-.4-1.2h-1l-2.2 1.2.4.3 1.3.4.7.3.5.4.4.3.4.4.7.3.4.5.3.3.3-.2 1-1v-.1l.3-.3.1-.4.2-.3.4.3.4.4.6.3-.4.9-.6.5-.5.3-.5.6-.2.8v1.8l-.2.8.7-.2.6-.4.7-.5.6-.6.7-.2.8.2 1.2.7-.5 1.4.2 1.3.4 1.3.2 1.4-.1 3 .3 1.2 1-.1v1.3l.4.4.6-.1.6-.7-.3-1 .6-.7h.9l.8.8.4-.5.3.8-.2.7-.3.7-.2.9-.2.5-.5.2-.6.1-.7-.1.5.8 1.4.3.5.8.6-.4.3-.6.7-1.4.1.3v.1h.1l.2.1-.6 1.2.5.2 1.5-.5.9.2 1.6.7 1 .1-1.6-1.8-.5-1.1.9-.9.7-.1.5.4.6.5.5.2.5-.3 1.1-1.2-.2 1.1-.5 1.7-.1 1 .4 1.6.3.9.3.3 1.1.6 1.1 1.3 3.4 5.6 1.7 2.2.5.5 1.7.7.5.5.9.9.6.5 3.6 1.8 2.3 1.8 1.3.1 1.3-.1 1.5.2 1.8 1.1 1.7 1.8 2.9 4.2 1 1.9 4.3 3.3 1 1.1.2 1.8-2.7-2.5-1.4-1-3.2-.4-.8-.3-.6-.8-.4-2.5-.6.4-.5 1.2-.3 1.1V931.8l.2.8.4.6.6.7.2.3-.3 4.2.1 1.2 1.6 5.3.6 1.1 1 1 1.1.7 5 1.8 1.7 1.6 1 2.4.5 3.1-.1 7.6-.2 1.6-.6 1.4-1.1.8-.1-1.1-.4-.4-.6.3-.6.7.4 1.8-.1 2.6-.5 2.8-.5 1.8-.9-.7-.3-1v-1.1l-.1-1-.4-.8-.5-.6-.6-.4-.4-.5-.4-.3h-.2l-.2-.2-.1-1.9-.1-.4-.3-.6-.4-.7-.7-.7-.8-.5-.7.3-1.5 3.1-.5.5-.6.4.3.9.6.9.3.3.2.6.5.9.1.7-.2.2-.4.1-.4.3-.2.5.1 1.1.3.9v1l-.4 1.1 1 .4.8-.6.4-1-.2-1.2.6.2.4.4.6.9.3.1.3-.1.2.1v1l.1.2.2.1h.3l1.5.3.6 1 .3 1.2.7 1.2v.5l-1.2 1.3.6 3.3 1.4 3.5 1.2 2.3 3.5 4.5 1.5 2.7.6 3.3h-.4l-1-3.3-.4-.6-.7-.1-.9-.5-.7-.5-.8-1.2-.9-.7-.8-.2-.2 1.4.4 1 1.5 1.1.5.7.3-.7.1-.3h.4l2.2 5 6.7 9.2 1.5 1.4-.2-.9-.4-1.1-.1-.8.5-.4.6-.3.3.1.2 1.5.3.4.3.2.1.2.5.9 1.1.6 2 .6.5.7 1.1 3.1-.4.5.7 1 .8 1.9.6 2 .3 1.5v.8l-.3 1.6-.1.9.1.9.3.6.3.5.3 1.1.8 1.7.2 1.1-.4 2.8.5 2.8.5 1.6.6.8.5-1.3 1.5 1.3 1.6 2.2.6 1.1 1 1.1 1.2 4.5 1.4 1.1 1.2 1.2.5 2.6.1 4.2.3.8.5 1.3.6 1.1.6.7.9-.1 1.3-1.3 1.1-.1 1.5-1.5.4-1.8-.5-6.6-.5-1.7-2.5-5-.2-1.1.6-1.9.2-1.3-.1-1.3-.3-.5-1.6-1-.4-2.4-.1-2.5-.6-1.7.5-1.2-.1-1.5-.3-1.5-.1-1.5.5-3.8v-1.4l-.9-5.2.7-3 .1-1.3-.8-.9 1.6-2.2 1.3 1.5 1.2 2.3 1.6.3-.9-2.8-.3-1.2v-1.2l.1-.8.2-.8v-.9l-.3-.8-.5-.4-1.3-.2-.7-.4.7-.8.8-.3.8-.1.8-.4.2-.4.3-1.1.3-.2.4.1.3.7.5.1.3.6-.1 1.1-.4 1.9v1.9l.5 1.4.3.3.4.4.6-.2.1-.1v-.4l.2-1.6v-1.7l.3-.7.7-.7.4.2.5.5h.8l.3-.5.9-2 .4-.8-1.6.6-1.5.3-1.2-.5-.9-1.8-.1-1 .5-3.3.1-.3.6-.5.1-.4-.1-.3-.3-.4v-2.3l.8.2.3-.6.1-.7.6-.4.4.2.3.6.3.8v.8l.8-.5.5-1 .2-1.1-.3-1.2-.4.5-.8-1 .1-1.5 1.5-3.9.2-1.3.2-3.2.5.4.2.2.1.4h.4l1.3-4.1 1.2-1.8 1.7-.8.9-.2 2.4-1 .5-.4.3-1.1 1.4-1.5.3-1 1.1.4 1.2-.4 2.1-1.4 4.7 2.7.9 1.1.1 1.3-.1 1.7v1.5l.7.7 1.1.4.3 1.2.1 1.4.3 1.3.9.9 1.2.2 2.5-.2 1.4.1 1.2.4 1 .7 1 .7.8.9.6 1 .4 1.3 1 7.5v.9l-.2.8-.4.4-.4-.3-.3-1-.5-.2-.5.3-.4.7-.2.8.1.6.5.5h.5l.4-.5.2-.5 1 1.6-.8 1.6-1.2.5-.2-1.8-.8.3-2 1.1.8.4.9.6.7.7.4.7-.2 1.5-.8.6-1 .3-.8.4-.4-.2-.4-.2.1 3.6-.1 1.2-.3.6-.5.6-.4.7.2.6 2.1 4 .4 1 .1 1-.4 6.6.1 1.5.3.8.7.3 3.5.6.5.6.5 1.4.4 2.4.1 5.7-.6 7.1.3.9-.5.5-.9 4.2-.8 1.3-2 2.5-.6 1.7-.5.2-.5.2-.4.3-.3.6-1.6 6.6-.3.8-.7.5-.3 1.3-.6 3.3h189l-.4-.3-.3-.7-.1-.8-.3-.9.3-.5-.4-.3-.5-.5.2-1.1.5-.7 2.3-1.7.3-.4.3-.7.3-.4 1.8.9.1.1.9-.2.8-.6.3-.9-.8-1.1 6.4-4 2.9-2.2 1.7-1.8 1.2-.8 2.2-.8 1-.6 1.6-1-.3-1.5 1.9-.4.3.2 4.4-5.5 5.9-8.2.3-1.1v-.9l1.1-1.1.9.1.9 1.4.3.9-.2 1-.8 1.2 1.6-.5.3-1.2-.4-1.6-1.2-2.3-.1-.6.3-.6 1.7-2 .6-.2h.8l-.2-.8v-.9l.4-.7.6-.4.6.5 1.2-1 1.9-2.8h.3l.3.8.3.1.4-.5.2-.9.4.5.8-2.6.6-1.1.6-.6-.7-.4.4-.9.7-1 .4-1.2.3-1.2.6-1.3.9-1.2 1-.4-.5 1.1-.6 1-.4.8.4.9.9.4 1.1-.2 1.3-.4 1.2-.2.4-.6.9-2.7.5-1 1.6-1.8.9-.7 2-.9 1.5-2.2.7-.6.5-.1.7-.2.7-.4.3-.4.3-.2 1.7-.5 2.1-1.8 3.2-4.3 1.5-1.5-.3.6-.4 1.4-.6 1.3.3.4.4.1.2-.2.1-1.1.6-1.9.1-1.3.4-.6 2.4-2.5.6-.7.4-.8.4-1 .2-1.3h-.4l-.2.7-.3.5-.5.4-.5.3 1.5-2.8 1.2-2.9 1.1-4.4.2-.6.3-.7.6-2.4 3.8-6.6 1.5-3.1.5-.6 1-.5v1.3l.7 1.1-.2.4-.3 1h.5l.5-.7h1.6l.3-.5.3-.2.8.3.7.8.2 1.2.4-.8.4.1.5.3.7-.1 1.6-1.2.6-.2 1.8.6.4-.1.1-.6-.2-.6-.5-.5-.4-.2-1.2-.1h-.6l-.5.3-.3.5-.6.6-.7.4-.6-.3-.1-.7.5-2.9V959l1.7 1.4.8.3.3-1-.3-.5-.6-.7-.8-.6-.7-.3.2-.6.3-.1h.4l.3-.3.8-.9.3-.8-.1-1.5.2-1h.4l.8 1.8.9-.6.3-.3.4.5-.3.5v.2l.1.2.2.5.6-.5.3.2.3.4.4.4 1.4.4.7.1.7-.1-.1-.3-.2-.8-.1-.3 1.2-.5.6 1.8-.1.7h-.8l-1.5-.1-1 .4-1.7 1.7-1 .6h.1l-.1.4-.5.8 1.3 1.4.7.6.8.3.5-.3.6-.6.7-.1.6 1-1.1 2-.5.3-.4-1.4-.6.1-.6-.1.2.7.1.4-.1.4-.2.4.7.8.9.6.8.7.4 1.3-.7-.1-.6-.1-.6-.4-.5-.4-.8.4-.7-.3-.5-.9v-1.1l-.4.3-.9.4-.3.2v-.7l.1-.6.3-.4.4-.2-1.3-.2-1.5.9-.8 1.3.4.9-.3.7-.1.9.1.8.3.9.5-1.4.5-.7.6-.2.4.4v.8l-.1.9-.3.7 1.1.5 5.3-.1-.5.9-.9.8-1.8 1.2-1.7.7-.5.6.2 1.1 1.4-.8.9.7v1.3l-1.4 1 .3.7.8 1.1.2.5.5.3 1.3.4-.4.3-.2.2-.2.9-.9-.5-.9-.3-.9.2-.5.6.9 1.7-.4 1.5-1 1.4-.7 1.5-.1.5.1 1.7-1.2 1.2-.9 1.8-.7.9-.8.6v-1.5l-.8 1.5-.9 2.2-.4 2.5.4 2.3.3.9 1.3.7 1.3.6 1 .2.5.8 1.3 4.7-.4 6.4.3 2.5-.1.5-.5.9.1.6.6 1.1.2.7.3.5.2.5.1.9-.1.8-.2 1.4-.2 2-.6 3-.2 10.5 1.2 5.5 1.3 5.6 3.8 8.4.6.7.4 1.6.4 2.9.9 1.8h429v-47.8l-.8-.2-.6-.1-.8-.2-.8-.3-2.2-.4-2.3-.3-2.4.2-3.8.6-1.9.7-1.1.6-1 .8-1.6 1.9-.8 1.8-.6.5-1-.4.3 1.1.5.9 1.7 2.3.3.3.1.1v.5l-.2.5-.2.5-.3.3-.3.1-1.9-.4-3.4-1.6-2-.3-4 .5-1-.2-2.7-1.3-3.9-1.1-2-.2-1.8.4-3.7 2.1-1.3.3-5-.5-10.1-2.4-8.2-.2-7.6.7-1.3.4-.8.8.2 1 1.3.6-1.2.5-1.5-.5-1.8.5-1.6 1-1.2.9-.6.7-.7 1-.4 1 .2 1.1.6.4 1.9.3.7.2-1.1 1-2.1.1-2.2-.4-1.4-.7.1-.4.3-.2.2-.1.1-.2.6-.3h.5l.4-.1.1-.8.1-1.5v-.8l-.3-.5-1.1-1.2-1.2-.9-1.3-.7-1.4-.3-2.1.1-2.8.5-2.5.9-1.4 1.3-.2.7-.2.9.1.9.5.4 1.5 2.1-.6.5-1.3-.1-2.6-.7-5-.4-1.3.2-2.4 1.3-1.3.4.6.9-.2.6-.5.6-.6 2-.7-.1-1.4-.8-1 .1-1.5.7-.9.2-.7-.2-.7-.6-.2-.8.6-.7-.5-.9.3-.6 1-.9.6-.8.1-.4.1-.9.2-.8.8-1.1.2-.8-.1-1-.2-.2-.3.2-.4.1-.2.2-.5.6-.3.1-.3-.1-.8-.6-.3-.2-.7-.1-.4-.3-.3-.3-.5-.3h-2.5l-1-.2h-.6l-.7.2-1.4-.1-.3-1-.2-1.1-1-.8-.2-.4-.3-.3-.5.4-.2.4-.1 1.2-.2.4.4.3.5.7.4.3-1.3-.1-.9-.4h-1l-1.3 1 1.4.5.6.3.5.6-.3.7-1 1.3-.2.7v.4l-.1.2-.5.5-.8.5-3.2 1 .9.6.7.8-11.6-2.9-2.2-.9-.2-.4-.4-1.6-.2-.4-9.8-3-9.6-1.7-8.1-2.1-5.6-.7-.9-.6.9-.9-1.4-2.1-.2-1v-3.8l-.2-.6-2.2-2.3-.9-.6-1-.1-1 .1-4.1 1.3-1 .6-.5 1-.9 1.1-.5.8v.4l.2.5.2 1.4.3.2h.4l.6.4h.5l.3.1.2.5v.7l1.3 2.3.3 1h-.9l-.7-.2-3.4-3.3-1.2-.7-3-.6-1.3-.9.6-1.1.2-.2-.8-.5-1.1-.1-2.1.1-1.6.3-.3.2-.6.6v.4l.2.3-.1.5-.3 1.3-.4.4-1.2-.8-.6-.3-2-.3-.5-.3-.6-.9-.1-.3.1-.8v-.3l-.3-.1-.6.1h-.3l-2.3-.7-2.5.2-4.8 1.4-.4.3-.3.5-.4.1-2.3-2.2-.2-.4-.4-1.2-1-.5-10.4 1.1h-2.3l-2.4-1.1-3.5-3.7-2.5-.9-2.7.1-8.3 3.1-5 .8-3.3 1.7-1.2.3-.5-.1-.5-.5-.4-.3-.5.2-.5.2-.6.2-1.3-.1-1.2-.3-1-.4-.7-.7-2.7-4.6-1.5-1.9-2.3-1.1-2 .1-.5-.3-.4-.7-.2-.7-.3-.5-.7-.2h-5l-10.6-2.1-3.7.6-3.1-.2-1.1-.6.4-1.1-1.7.1-1.9.4-.8.5-1.3 1.2-.9.2-.4-.2-.2-.2h-.3l-.7.7-.5.3-.6.2-.5-.1-.2-.4-.3.1-2.1 1.6-2.1.3-2-.4-1.8-.6-1.9-.3-1.6-.8-1.3-1.9-1.8-3.9-1.8-2.4-2.2-.5-2.4.6-2.4 1.3-2 1.8-1.3.8h-.9l.3-3 .2-.8.1-.4.1-.2-.1-.6-.6-1.6-.9-.8-1.2-.3-1.5-.1-1.3.1-3.3.8-.7-.1-1.2-.7-.7-.1-.7.1-1.1.3-.6.1-1.5-.2-4-1.3.5-.4-7.9-.6-.8-.5-.4-1-.4-3.4-1.4-3.5-.7-2.8-.5-1.3-.6-.6-.1-.3-1.3-1.6-.3-.1-.7.1h-.2l-.1-.3-.2-.8-.8-2.5-.2-1.2-.6-1.3-.1-.8.3-1.5 1.9-2.1.6-1.4-.8-2.2-3.9-4.5.3-1.8-.4-.5-.3-3.1-.4-1.5-.7-1.3-1.1-1.1-.3-.6-.2-.6-.2-1.5v-.7l1-8.6-.2-3.2-3.8-16.1-.8-1.2-2-1.8-.7-1.1.1-1.1-1.8-1.3-.6-.7.8.1.7-.3.6-.4.7-.3-.5-.5-.1-.6.2-.7.4-.6-1.8.9-.6.1-.6-.2-.3-.3-.2-.3-.3-.2-.3-.2-.3-.4-.4-.3-1.2.6-.3-.3-.2-.5v-.7l-.7.1-.4-.3v-.5l.6-.3.3-.2 1-1.2.5-.4v-.5l-1.7-.3-1.4-1-1-1.4-.3-1.6-.7.7-.8.3h-1.6l-.8-.3-.6-.7-.4-.6-.6-.3-6.1-.1-1.3-.4-.4.5-1.4-.9-1.8-.3-3.6-.2-1.7-.4-3.1-1.3-1.8-.3-3.6.2-1.9.5-1.3 1-1.3.7-3.8.1-1.6.4-.4.3-1 1-.2.3-.1.8-.3.2-.5.1-.5.4-1 .9-3.9 2.5-1.5 1.2v.3l-.3.2-1 1-.7.2-2.6.4-2.4.6h-2.6l-.6.1-.9.7-.5.1h-2.2l-1.9-.4-.5-.1-1.2.6-1.9 1.9-.8.4-.6.5-3.2 3.8.9-.3.3-.2.5-.5.2 1.7-.4 2.1-.6 1.9-.9 1.5-1.9 1.8-2.2 1.2-2.4.5-2.7-.1-4.7-1.7-2.7-.4-2.2 1.1-.7 1.3-.3 1.2-.6 1-1.4.3-1.1.2-2.6.8-.9.4-3.8 3.6-.7.4-5.6 4.9-6.3 3.9-.4.4-.4.4-.4.4-.7.2-.7-.2-1-.6-.7-.1-5 .4-2.6-.4-1-1.6-.7-2-1.7-1.7-2.6-.5-5.3.2-2.2-1.1-1-1.8-.9-2.2-1.1-2.1-1.7-1.5-1.3-.2-1.1.2-1.2.3-4.4.4-1.3-.2-4-1.2-1-.2-.6-.2-1.1-1-.5-.2h-.6l-1.3.2-3.8 1.9-2.7.4-2.4.7-1.3.1-2.6-.9-1.4-.1-1.4.7-.7-.2-3-2.8-4.4-2.8-5.7-4.5-.9-1.1-.3-1.3-.1-3.3-.5-1.4-1-1.3-1.9-1.2-19.9-7.1-1.3-.2-1.2-.3-.8-1-.6-1.1-.8-.9-3.4-.9-.6-.7-.5-1.5-1.2-.8-2.7-.8-4.7-4.5-2.1-1.5-7.6-3.5-1.2-1.4-.1-1.4.5-.9 1-.4 1.2-.1h1.1l1.3-.1.7-.7-.5-1.6-.9-.9-2.4-.9-.9-.8-.5-.8-.9-2.3-.4-.7-4.4-4.7-1.9-1.6-2.2-1-10.4-2.4-2.2-1.2-6.9-6.7-2.2-1.5-2.4-1.1-2.8-.4-4 .6-1-.3-1.1-.8-1.4-.4h-2.9l-3.4.8-1.2.1-6.4-.5-.7-.2-.3-.5-.1-.6-.2-.5-.3-.4-1.6-.5-1.2-1-2.7-2.9-.7-1-.6-1.3-.2-1.7-.6-1.1-1.5-.7-2.7-.8-1.2-.9-4.1-4.1-.5-.7-.2-1-.1-1.8 1.3-3.7-.1-1.9-1.2-2-2-1.9-.7-.9-2.1-3.4-1.9-2.1-.5-.7-3.5-9.2-.5-2.2-.1-8.8-.7-3-1.3-2.5-1.5-1.8-1.9-1.2-2.5-.6-2.4-.2-1.1-.3-.5-.7-.5-1.4-2.7-3.6-.5-1.3-.3-1.9.2-1.7 1.2-.8 1.1.5 1.2 1 .9 1.2.6 1.2.6-.6-.1-.5-.2-.6.1-.7.4-.5 1.2-1.1.4-.8.2-1.5-.2-1.6-.5-1-1.1.3-.5-2-.4-.7-.7-.6-.4.1-.5.3-.5.1-.2-.3-.1-1.2-.1-.5-.2-.4-1.4-.3-4.6.3-1.1.2-1.5 1-1.6-.2-1.3-1.2-.5-1.9-.2-1.7.2-.8.5-.9.4-.9.4-1.2.6-.5.8 1 .3-2.8.1-.5-.5-.2-.4-.4-.7-1.3.4-1.7v-2.7l-.3-2.7-.5-1.9-.7-1.4-1.2-1.7-.9-.4v2.1l-.3-.8-1.7-2.6-3.1-2.6-.5-.9-.4-1.2-.9-1.3-1.9-2-3.5-1.4-.5-.7-.4-1.4-.8-1.3-1.6-1.8-1.6-2.4-2.6-5-1.4-2.1-1.1-1-2.5-1.5-2.2-2.4-.2-.3-.2-.8-.1-1.3-.2-.7.9-.1.3-.4-.4-.5-.8-.4.7-2.4-1.4-3.9.4-1.8-.9-.7-.9-1.2-.8-1.4-.3-1.2-.3-.7-.9-.6-2-.8-2.1-.3-2.2.4-2.1.7-18.4 12.1-2.1.9-1.9-.5-1.6-2.4-.2-1.1v-3.2l-.5-1.2-.4-.6-.1-.4-.3-.2-.6-.4-.6-.3-.5-.1-1.3-.1-.6.1-1.3.3-.7.1-.6-.2-.9-.6-.5-.2-1.2.2-2.2 1-1.2.2-1.5-.1-.6-.6.1-2.8-.1-.2-.9-.6-.2-.4v-1.4l.1-.6.2-.4v-.4l-.7-.5-.3 1.2-.7 1.1-.8.8-1 .2-1.1-.7-.5-.9-.6-.7-1-.1-1.4-.5-3.8-2.3-.8-.7-.4-2.3-1.1-1.4-1.5-.8-1.9-.5.7-1.1.9-.3 2.4.4h1.3l1.9-.7 1.1-.2 1.2.3 2.4 1.3.8.3 1.3.2 1 .4.8.7.7 1.1.4-.9 1.1-2.1 1.7-2.2.3-.7.1-1.2-1.2.2-.9-.6-.5-1-.5-2.5-.7.3-.9 1-.9.7.1-.9.1-.2.2-.3-.5-.8-.5.1-.6.5-.8.2-.4-.3-.6-.9-.4-.2h-.4l-.5.4h-.3l-1.2-.2-1-.3h-1l-1 .5-2.1-.3-1.7 1.1-.4 1.4 1.6.7 1.8.4 1.5.9.4 1.3-1.1 1.2h-1l-3.2-.5-.7.2-3.2 3.1-.2.3-.5.8-.3.9.7.6-.3.5-.4.5-.2.4.5 1.5 1 1 1.2 1 .9 1 .5 1.3.4 1.5.3 3.1-.1.9-.5 1.4-.2.8.1.7.3 1.3v.8l-.3 1.4-.8 1.2-1.1.9-1.2.3-3.9-.4-1.1.4-1.1-.5h-4.1l-2.5-1.4-.9-.2-.2 1.2.3.8.8 1.3.1 1-.1.7-.5.6-.5.4-.5.4-1.3.4-4.3-.4v-.5l-.3.4-.1.2v.4l1.4-.1.3.7-.8.8-1.5.4-6.4-.6-4.4-1.6-2.1-1.6-2.1-.7-3.2-2.1-2.6-.9-2.7-.5h-2.5l-2.2.6-4.1 2.3-.4-1.9-.2-2.1-.4-1.9-1-1.3.7 2.3.1.8-.1.9-.3.9v.7l.4.6v1.6l.4 1.2.6 1.1.6 1.3.2 1.5v2.5l.2 1.7.8 2.2 1.5 3.3 1.8 2.6 1.5-.1 1 3.1 1.4 3.1 2.5 3.6.4 1.6-.5 1.5-1.3.5-1.4-.3-1.3-.8-.4-.6-.1-.7-.3-.6-.8-.4-.9-.1h-.8l-.8-.1-.7-.8h1.2l-.7-1-1.4-.4-1.3-.1-.6.3-1.3 2.2"/></g><g id="islands" fill="#D3D3D3" stroke="#9B9B9B"><path id="khark" d="M407.2 756.3l-.7-2.3-.2-2.8 2.4.5.1.1 1.1-1.1.9 2.8-.2 1.6-.2 1.5-1.1 3.1z"/><path id="kish" d="M621.2 946l-2.4-1.2-1.6-2.8 1-1.7 1.2-.9 1.3-.4 1.5.1 1.1.3 2.1.3 1.5.6.2 1.1v.6h.1l.1.2.7.7.2 1.3-.5 1.4-1.2.7z"/><path id="hormuz" d="M765.5 906.9l.3-2.9 1.4-1.9 1.9-.6.8.7.8.2.8.9.5 1.5-.3 1.4-.9.9-1.1.7-1.4.1z"/><path id="qeshm" d="M698.8 941.7l-.4-1.1-.4-2.1.5-1.3v-.2l-.1-.2-.9-2.9 1.5-1.7 2.9 1.2.6-.4.6.2 2.8-1.6 8-2.8 1.1-.1.8-.4 2.6-1.6 1.2-1 4.1-1.8h.9l1.1.1h.3l.2-.1.5-.4-.3-.7 1.1-1.2.1-.9-.2-2.8-.4-.9-.9-.9-.9-.8-1-1.6 2.6-1.7 8.4 3.4 1.7-.5 6.2-4.2 8-1.9h2.5l1.4.3 1.8.8 1.6 1.3.7 2.2-2.5 1.7-3.7 1-.9.9-1.3 3-.7 1.3-2.4 2.6-.4.8-.7.9-2.2 1.2-.5.6-.5.3-2.9 3-2.3 1.3-1.9-.8-1.5-1.5-.9-.8-3.2 1.7-1 1-1.5.9h-1.5l-2.6-.4-.9.2-1 .6-3.2 2.3-3.3 1.5-2 1.6-1.3.6-3.7.5-2.3.6-1 .7-.9.5-1-.2-.3-.2-.4.7-.9.6-.9.3-1.2.2z"/><path id="lark" d="M759 922l.3-2.9 1.2-1.6 1.9-.9 3.3-.4.5 3.7-2.3 2.1-2.8 1z"/><path id="lavan" d="M581.9 925.4l-3.7-.6-1.2-.6-1-.7-1.8-1.6-1.4-1.4 1.2-1.2.6-.1.6-.2.8-.2 5.1 1.6 4.5.4 1.6.8 2.8 2.6-2.9.6-2.2-.2-.4.1-1.2.7z"/><path id="farur" d="M653.4 962.4l-.8-.5-.8-.8V960l-.2-.7v-1l.3-1.1.7-.8 1-.7 1.3.5.6.6.3.2.6.4.4.6.4 1.1-1.6 3.3-1 .4z"/><path id="hendorabi" d="M602 934.5l-1.3-.8-1.2-1.5 1.2-1.9h1.8l.8.3 1.1.4 1 2-1.7 1.7z"/><path id="hengam" d="M731.5 936.7l.2-2.5.9-1.8 1.3-1.1 1.5-.3 1 1.5.2 2.3-1.2 1.8-1.8 1.3z"/><path id="siri" d="M654.7 987.2l-1.4-.7-.5-1.9 1.4-1 2.4-.7.7 1.5.2 2-1.4 1.1z"/><path id="abu-musa" d="M687.5 986.8l1.3-.8 1.9.5.1 1.7-.6 2.4-1.7-.1-1.7-.9-.3-1.7z"/><path id="greater-tunb" d="M704 961.8l-.4.9-1.3.2-.6-.9-.4-1.6 1-.4 1.3-.1.7 1z"/><path id="lesser-tunb" d="M693.7 963.1l-.2.3-.5.1-.2-.3-.2-.6.4-.2.5-.1.3.4z"/></g></svg>